/* XPM */
static char * icon_xpm[] = {
"48 48 255 2",
"  	c None",
". 	c #030303",
"+ 	c #54506E",
"@ 	c #8F8F8D",
"# 	c #A7A8A6",
"$ 	c #535850",
"% 	c #33352F",
"& 	c #161617",
"* 	c #78EFE4",
"= 	c #4ADEEA",
"- 	c #2F5B65",
"; 	c #0E0E0E",
"> 	c #2E2D2C",
", 	c #F5F5F3",
"' 	c #FEFEFE",
") 	c #A29A91",
"! 	c #0A700C",
"~ 	c #06EC0A",
"{ 	c #043805",
"] 	c #4C4D45",
"^ 	c #1F1D16",
"/ 	c #52928A",
"( 	c #3D8973",
"_ 	c #498C99",
": 	c #3A6666",
"< 	c #3A7C6B",
"[ 	c #6FB9E2",
"} 	c #56969A",
"| 	c #729BC2",
"1 	c #F8FAE2",
"2 	c #86826C",
"3 	c #0B820B",
"4 	c #09B90A",
"5 	c #099C0A",
"6 	c #086007",
"7 	c #32808A",
"8 	c #6ED6CA",
"9 	c #6287A6",
"0 	c #131213",
"a 	c #738DB2",
"b 	c #68375C",
"c 	c #5B3970",
"d 	c #362650",
"e 	c #CFCFCD",
"f 	c #DDDBDD",
"g 	c #E8E8EC",
"h 	c #09A80A",
"i 	c #0C8E0A",
"j 	c #0E4E0A",
"k 	c #090A0A",
"l 	c #5E6A5E",
"m 	c #90A868",
"n 	c #1E323E",
"o 	c #6C6867",
"p 	c #204055",
"q 	c #365276",
"r 	c #C4BDB8",
"s 	c #7A7C55",
"t 	c #2A2630",
"u 	c #3D3729",
"v 	c #486A68",
"w 	c #1E224A",
"x 	c #556A8B",
"y 	c #4F5A72",
"z 	c #6E56AA",
"A 	c #211322",
"B 	c #F6F8D3",
"C 	c #E2DEA6",
"D 	c #DED296",
"E 	c #A4040D",
"F 	c #FA0606",
"G 	c #BC9210",
"H 	c #A69021",
"I 	c #CF6E16",
"J 	c #766E3E",
"K 	c #C4C4D4",
"L 	c #949282",
"M 	c #F7EEA9",
"N 	c #DD060F",
"O 	c #EB5222",
"P 	c #AEAEA8",
"Q 	c #120406",
"R 	c #F5C32C",
"S 	c #DEC646",
"T 	c #F5A323",
"U 	c #DD7E1F",
"V 	c #303C70",
"W 	c #583882",
"X 	c #F7FABE",
"Y 	c #766242",
"Z 	c #700711",
"` 	c #C0060D",
" .	c #F4CD1B",
"..	c #F0CE39",
"+.	c #EEC646",
"@.	c #F38619",
"#.	c #522B15",
"$.	c #7176B6",
"%.	c #5A3B43",
"&.	c #422A65",
"*.	c #C6B27A",
"=.	c #3F7429",
"-.	c #061E06",
";.	c #3D0206",
">.	c #9E0A1F",
",.	c #A64E06",
"'.	c #574505",
").	c #EF9110",
"!.	c #F6BA06",
"~.	c #422606",
"{.	c #4E9E96",
"].	c #693B7E",
"^.	c #322020",
"/.	c #9E9E7E",
"(.	c #FAF6A2",
"_.	c #F1DD95",
":.	c #8A6F5C",
"<.	c #8A6206",
"[.	c #C2A634",
"}.	c #2E2819",
"|.	c #2C1A16",
"1.	c #200E0A",
"2.	c #F17F41",
"3.	c #72AECE",
"4.	c #62A2B7",
"5.	c #774355",
"6.	c #572EA3",
"7.	c #3A1A1E",
"8.	c #E2CE8A",
"9.	c #AF8F74",
"0.	c #B59E7B",
"a.	c #466B2B",
"b.	c #062806",
"c.	c #691227",
"d.	c #834123",
"e.	c #F67E0B",
"f.	c #F6B23E",
"g.	c #4C401D",
"h.	c #09C50A",
"i.	c #C6BA7E",
"j.	c #162A38",
"k.	c #5A7AC2",
"l.	c #668E6A",
"m.	c #C6A642",
"n.	c #C7A51B",
"o.	c #3B432D",
"p.	c #570205",
"q.	c #260206",
"r.	c #F6E222",
"s.	c #384249",
"t.	c #4F2640",
"u.	c #412920",
"v.	c #022202",
"w.	c #6D570D",
"x.	c #CEAE2E",
"y.	c #AEF6EE",
"z.	c #204E54",
"A.	c #F2D64E",
"B.	c #766E12",
"C.	c #0A2E08",
"D.	c #34060D",
"E.	c #BA0A22",
"F.	c #9D7B11",
"G.	c #995D31",
"H.	c #4A7E9E",
"I.	c #4C7E62",
"J.	c #A5B2AF",
"K.	c #70B8BE",
"L.	c #B66646",
"M.	c #B66616",
"N.	c #AF5D43",
"O.	c #4E86DE",
"P.	c #BB9E8D",
"Q.	c #64080F",
"R.	c #8B1927",
"S.	c #AA262A",
"T.	c #F09B5D",
"U.	c #CE3666",
"V.	c #D2373B",
"W.	c #9E2150",
"X.	c #622A2A",
"Y.	c #734C2D",
"Z.	c #354F33",
"`.	c #46920E",
" +	c #5CA425",
".+	c #D23E22",
"++	c #52920E",
"@+	c #76B649",
"#+	c #580A15",
"$+	c #B52754",
"%+	c #6A361E",
"&+	c #B2760A",
"*+	c #5E920E",
"=+	c #72A222",
"-+	c #962E3A",
";+	c #C15E7C",
">+	c #EEA8A8",
",+	c #C69AA0",
"'+	c #EC9A84",
")+	c #D84A86",
"!+	c #82502A",
"~+	c #D28C54",
"{+	c #E4BAB4",
"]+	c #EA777E",
"^+	c #F2CDC5",
"/+	c #564A62",
"(+	c #EBE2E3",
"_+	c #634B55",
":+	c #EE5E7E",
"<+	c #B8508B",
"[+	c #B34E63",
"}+	c #F25A9A",
"|+	c #5A4128",
"1+	c #383441",
"2+	c #7E5E4E",
"3+	c #D2726E",
"4+	c #FAD6CE",
"5+	c #B4784B",
"6+	c #AE7672",
"7+	c #AA744C",
"8+	c #CA5D56",
"9+	c #A15B49",
"0+	c #88592A",
"a+	c #9B4B49",
"b+	c #655A57",
"c+	c #644933",
"d+	c #CE7650",
"e+	c #CA9974",
"f+	c #AE523E",
"g+	c #785936",
"h+	c #89633B",
"i+	c #283424",
"j+	c #355E3C",
"k+	c #F24052",
"l+	c #373F84",
"m+	c #584C22",
"n+	c #CA4A42",
"o+	c #1E7E5A",
"p+	c #3EA26E",
"q+	c #1C225C",
"r+	c #7978E9",
"s+	c #9A9AC6",
"t+	c #52B276",
"u+	c #3A73C2",
"v+	c #3A4472",
"w+	c #8ADBD9",
"x+	c #1E4AF2",
"y+	c #5C5DDC",
"z+	c #7E8E56",
"A+	c #30588C",
"B+	c #3C6A82",
"C+	c #3044A6",
"D+	c #96864E",
"E+	c #23372E",
"F+	c #469E2E",
"          . .                     . . . .                               . . . . . . . . .       ",
"        + @ # $ %             . & * = * * - ; ;                       > , , ' ) ! ~ ~ ~ ~ {     ",
"        ] ^ . + %         . / ( _ : < [ [ } | | + ;                 & 1 ' , 1 1 2 3 ~ ~ 4 5 6 . ",
"          . .             7 8 [ 9 9 9 0 a a b c d .                 % e f g e f ) 3 h i 6 j k   ",
"        . l m .           n # o # # p | q 0 b d .                 . g . % r . l ' s t u % ;     ",
"      . v w . x > .       . e $ ' ' k y } z A .                   . g . n r . l B s @ C D >     ",
"  . E F E # , 0 0 , .     $ G H ] ] G I d c t w .                 . , + J K + L M J $ s J &     ",
". N O F ] + . P # . #   Q R G R R R S T U ; V | W A               . ' 1 1 , 1 X M Y { 6 { k     ",
"  Z ` F $ ] . # # . #   k  .G .. .R  .+.@.#.| | $.%.&.            . @ , X 1 X M *.=.h ~ 4 -.    ",
"  ;.>.k ,.# , '.'., .   . ).!.I #.~.#.U I {.| | 9 W ].^.            0 X C /.(._.:.3 5 5 ~ {     ",
"  ;.E . @.<.'.!.!.'.[.}.  |.^.1.#.2.@.U u 3.4.| 5.b W 6.7.k k         2 8.9._.0.a.4 4 6 h b.    ",
"  ;.` c.d.e.).@.f.!...'.    & ; . A 1.. : 3.a a &.&.5.c W W .         . g.g.'.0 5 h.~ 4 6 ;     ",
"  ;.N . Z k e.e.#.. . . . s i.] r 0 t e j.k.l.].A 6.b ].].A . k [.m.n.[.).o.}.! h h.~ ~ 4 h -.  ",
"  p.` F . q.;.;.;.# . 1 r.H '.. # s.# f , @ - -.d W ].t.u.. 2.T T R  .R R R H b.3 4 4 4 4 ~ v.  ",
". E E p.w.Z >.E N . w.t }.^ S '.x.'.x.w.s.y.* z.W 6.0 k q.q.A U ).+.R  .A.r.B.-.-.b.b.b.C.{     ",
"  D.D.. D.N E E.F . .       k . F.g.; G.. - H.. k ] t.9.@.^.^ . g.F.T f.f.F.I.v l e J.K.K.H.0   ",
"  . ;.Z ` F Z ` ` .                               L.M.I N.k         & ^ A...p q v [ _ _ O.k.0   ",
". . . . ;.p.. ;.D.. .   . . . . . . . . . . .   . . . . . . . . . . . k k . k . . k k . k . .   ",
". ' ' ' .   . ' ' ' .   . ' ' ' ' ' ' ' ' ' .   . ' ' ' ' ' ' ' ' ' .   . ' ' ' ' ' ' ' ' ' .   ",
". ' ' ' .   . ' ' ' .   . ' ' ' ' ' ' ' ' ' .   . ' ' ' ' ' ' ' ' ' .   . ' ' ' ' ' ' ' ' ' .   ",
". ' ' ' .   . ' ' ' .   . ' ' ' ' ' ' ' ' ' .   . ' ' ' ' ' ' ' ' ' .   . ' ' ' ' ' ' ' ' ' .   ",
". ' ' ' .   . ' ' ' .   . ' ' ' . . . . . . .   . ' ' ' . . . ' ' ' .   . ' ' ' . . . ' ' ' .   ",
". ' ' ' .   . ' ' ' .   . ' ' ' .               . ' ' ' .   . ' ' ' .   . ' ' ' .   . ' ' ' .   ",
". ' ' ' . . . ' ' ' .   . ' ' ' . . . . . . .   . ' ' ' . . . ' ' ' .   . ' ' ' .   . ' ' ' .   ",
". ' ' ' ' ' ' ' ' ' .   . ' ' ' ' ' ' ' ' ' .   . ' ' ' ' ' ' ' ' ' .   . ' ' ' .   . ' ' ' .   ",
". ' ' ' ' ' ' ' ' ' .   . ' ' ' ' ' ' ' ' ' .   . ' ' ' ' ' ' ' ' ' .   . ' ' ' .   . ' ' ' .   ",
". ' ' ' ' P.Q.Q.Q.Q..   . ' ' ' ' ' ' ' ' ' .   . ' ' ' ' ' ' ' ' ' .   . ' ' ' .   . ' ' ' .   ",
". . . . R.S.O T.T.O R.  . . . . . . . . . . .   . . . . . . . . . . .   . . . }.> > . . . . .   ",
"    c.U.V.W.X.Y.o X.D..                                                     Z.`. + +Z.%         ",
"  Q..+W.q.Q . . . . . . . . . . .               . . . . .   . . . .       o.++ +@+@+@+++o.      ",
"#+$+R.. k 0 & 0 & & k . . ' ' ' .               . ' ' ' .   . ' ' |.g.^.u %+&+*+=+=+&+%+=.u u   ",
"-+;+c.Q d.>+e ,+,+f ] . . ' ' ' .               . ' ' ' .   . ' ' }.'+u )+#.d.I I I !+#.a.s.~+u.",
"N.{+k 7.]+^+2 :./+P (+  . ' ' ' . . . . . . .   . ' ' ' .   . ' ' ^.~+_+;+:+<+%+X.%.[+}+%.|+~+1+",
"2+3+. k _+^+>+]+>+^+4+  . ' ' ' ' ' ' ' ' ' .   . ' ' ' .   . ' ' }.5+6+].<+<+[+<+<+<+<+5.7+7+u.",
"  ]+8+%.{+:.|.9+8+;+;+  . ' ' ' ' ' ' ' ' ' .   . ' ' ' .   . ' ' o 0+|+a+/+$.b+|+y o _+a+c+!+% ",
"    a+]+3+Y % . . . . . . ' ' ' ' ' ' ' ' ' .   . ' ' ' . . . ' ' ' ^.!+Y.~+f P.d+0.f e+Y.Y.u.  ",
"    1.8+]+'+3+f+[+f+Y.n . ' ' ' . . . ' ' ' .   . ' ' ' ' ' ' ' ' '   > g+~+9.g+T.h+9.~+!+a.i+  ",
"    Y.Z W.R.#+%+,.0+g.p . ' ' ' .   . ' ' ' .   . ' ' ' ' ' ' ' ' L |+|+|+h+5+5+T.5+5+G.j+=.i+  ",
"  Q.R.k+V.W.9+K ' ' P.] l+' ' ' . . . ' ' ' .   . ' ' ' ' ' ' ' ' ^.m+!+g.$ Y 5+~+5+g+$ j+] |+  ",
"  #+$+V.k+n+P., , , 1 :.p ' ' ' ' ' ' ' ' ' .   . . . . . . . ' ' > # m+i+Z.$ 2 c+a.o+- i+Y.0+% ",
"  &.Z $+U.)+a+i., , 9.$ p ' ' ' ' ' ' ' ' ' .               . ' ' % g P # # r # j+p+o+2+G.|+!+% ",
"  q+l+Z W.R.Q.d.h+0+K - p ' ' ' ' ' ' ' ' ' .               . ' ' o.g r+$.r+s+# I.t+Z.G.).g.u   ",
"    u+v+%.b+a w+w+{.l+j.. . . . . . . . . . .               . . . o.(+x+y+y+r+# s z+2 2+c+}.    ",
"    A+H.I.K.w+4./ B+q+                                            s.(+C+r+y+$.# D+S m ( E+}.    ",
"    C+O.< < ( A+A+A+k                                             E+g C+r+y+$.# a.F+j+o.R.u.    ",
"    u.l+v+l+l+V V V q                                               l K C+y+P s.E+% > }.u.>     ",
"      %+0+Y.!+g+|+c+}.                                              t y g K o.> }.> t w > t     ",
"      . A |.|.~.& }.;                                                   s.% > t t > > > >       "};
