/* XPM */
static char * back_xpm[] = {
"15 16 2 1",
" 	c None",
".	c #000000",
"               ",
"          ...  ",
"        .....  ",
"      .......  ",
"    .........  ",
"  ...........  ",
" ............  ",
" ............  ",
"  ...........  ",
"    .........  ",
"      .......  ",
"        .....  ",
"          ...  ",
"               ",
"               ",
"               "};
