/* XPM */
static char * cdrw2_xpm[] = {
"150 48 13 1",
" 	c None",
".	c #7F7F7F",
"+	c #FFFF00",
"@	c #BFBFBF",
"#	c #000000",
"$	c #7F7F00",
"%	c #00FFFF",
"&	c #FF0000",
"*	c #00FF00",
"=	c #FFFFFF",
"-	c #007F7F",
";	c #007F00",
">	c #7F0000",
"                                                                                                                                                      ",
"                                                                                                                                                      ",
"                                                                                                                                                      ",
"                                                                                                                                                      ",
"                                                                                                                                                      ",
"                                                                                                                                                      ",
"                                                                                                                                                      ",
"                                                                                                                                                      ",
"                           ......                                                                                          ......                     ",
"                        ...+++@@@###                                     ###                                            ...+++$$$###                  ",
"                      ...%%+++@@@@@@##                                  #@@@#                                         ...&&+++$$$$$$##                ",
"                     .**%%%+++@@@@@@@@#                                #=#@#@#                                       .**&&&+++$$$$$$$$#               ",
"                    .****%%%++@@@@@@@@=#                              #===#@#@#                                     .****&&&++$$$$$$$$=#              ",
"                   .@@***%%%++@@@@@@@=@=#                            #=====#@@@#                                   .$$***&&&++$$$$$$$=$=#             ",
"                   .%@@***%%++@@@@@@=@=.#                           #=======#@@@#                                  .&$$***&&++$$$$$$=$=.#             ",
"                  .%%%@@**%%++@@@@@=@=.@.#                         #=========#@@@#                                .&&&$$**&&++$$$$$=$=.$.#            ",
"                  .@@%%@@**%++@@@@=@=.@.@#      -                 #===========#@@@#             -                 .$$&&$$**&++$$$$=$=.$.$#            ",
"                 .@@@@@%@@**....@=@=.@.@.@#     --               #=============#@@@#            --               .$$$$$&$$**....$=$=.$.$.$#           ",
"                 .@@@@@@%@@.####.==.@.@.@.#     ---             #=============#@@@@@#           ---              .$$$$$$&$$.####.==.$.$.$.#           ",
"                 .@@@@@@@%.#===.#..@.@.@.@#     ----           #=============#@@@@@@@#          ----             .$$$$$$$&.#===.#..$.$.$.$#           ",
"                 .@@@@@@@@.#===.#.@@@@@@@@#     -----         #=============#@@@@@#@@@#         -----            .$$$$$$$$.#===.#.$$$$$$$$#           ",
"                 ..@.@.@.@.#===.#.@@@@@@@@#  ---------       #=============#@@@@@#@#@@@#     ---------           ..$.$.$.$.#===.#.$$$$$$$$#           ",
"                 .@.@.@.@..#===.#.@@@@@@@@#  ----------     #@#===========#@@@@@#@@@#@@@#    ----------          .$.$.$.$..#===.#.$$$$$$$$#           ",
"                 ..@.@.@.=@.####.@@@@@@@@@#  -----------    #@@#=========#@@@@@#.#@@@#@@#    -----------         ..$.$.$.=$.####.$$$$$$$$$#           ",
"                 .@.@.@.=@=@....%@@@@@@@@@#  -----------#   #@@@#=======#@@@@@#...#@@@#@#    -----------#        .$.$.$.=$=$....&$$$$$$$$$#           ",
"              .....@.@.=@=@@@@+@%%@@@@@@@#   ----------#     #@@@#=====#@@@@@#.....#@@@#     ----------#      .....$.$.=$=$$$$+$&&$$$$$$$#            ",
"             .@@@@..@.=@=@@@@++*@%%@@@@@@#   ---------#       #@@@#===#@@@@@#.......#@#      ---------#      .@@@@..$.=$=$$$$++*$&&$$$$$$#            ",
"            .@@@@@@..=@=@@@@@@+*@%%%@@@@#     ##-----#         #@@@#=#@@@@@#.........#        ##-----#      .@@@@@@..=$=$$$$$$+*$&&&$$$$#             ",
"           .=======.=@=@@@@@@++**@%%%@@@#       ----#           #@@@#@@@@@#..#......#           ----#      .=======.=$=$$$$$$++**$&&&$$$#             ",
"           .=@@@@@@@.=@@@@@@@@+**@%%%%@##       ---#             #@@@@@@@#..#=#....#            ---#       .=@@@@@@@.=$$$$$$$$+**$&&&&$##             ",
"           .=@=======.@@@@@@@+++**@%%%#.#       --#               #@@@@@@@#..#=#..#             --#        .=@=======.$$$$$$$+++**$&&&#.#             ",
"           .=@..........@@@@@@++**@.##..#       -#                 #@@@@@@@#..#..#              -#         .=@..........$$$$$$++**$.##..#             ",
"           .=@##########...@@+++*###....#       #                   #@@@@@@@#...#               #          .=@##########...$$+++*###....#             ",
"           .=@===========.#######...@...#                            #@@@@@@@#.#                           .=@===========.#######...@...#             ",
"           .=@**;@@@@@@@@@@@......@@@...#                             #@@@@@@@#                            .=@&&>@@@@@@@@@@@......@@@...#             ",
"           .=@;;;@@@@@@@@@@@@@@@@@@@@...#                              #@@@@@#                             .=@>>>@@@@@@@@@@@@@@@@@@@@...#             ",
"           .=@@@@@@@@@@@@@@@@@@@@@@@@..#                                #@@@#                              .=@@@@@@@@@@@@@@@@@@@@@@@@..#              ",
"           ...........................#                                  ###                               ...........................#               ",
"            ##########################                                                                      ##########################                ",
"                                                                                                                                                      ",
"                                                                                                                                                      ",
"                                                                                                                                                      ",
"                                                                                                                                                      ",
"                                                                                                                                                      ",
"                                                                                                                                                      ",
"                                                                                                                                                      ",
"                                                                                                                                                      ",
"                                                                                                                                                      "};
