/* XPM */
static char * d64_xpm[] = {
"75 48 208 2",
"  	c None",
". 	c #969696",
"+ 	c #959595",
"@ 	c #8F8F8F",
"# 	c #8C8C8C",
"$ 	c #8D8D8D",
"% 	c #8B8B8B",
"& 	c #898989",
"* 	c #878787",
"= 	c #868686",
"- 	c #838383",
"; 	c #828282",
"> 	c #818181",
", 	c #808080",
"' 	c #7F7F7F",
") 	c #7E7E7E",
"! 	c #7D7D7D",
"~ 	c #7C7C7C",
"{ 	c #7B7B7B",
"] 	c #7A7A7A",
"^ 	c #797979",
"/ 	c #777777",
"( 	c #787878",
"_ 	c #767676",
": 	c #747474",
"< 	c #757575",
"[ 	c #484848",
"} 	c #393939",
"| 	c #383838",
"1 	c #363636",
"2 	c #333333",
"3 	c #353535",
"4 	c #343434",
"5 	c #323232",
"6 	c #373737",
"7 	c #3A3A3A",
"8 	c #303030",
"9 	c #727272",
"0 	c #3B3B3B",
"a 	c #434343",
"b 	c #535353",
"c 	c #606060",
"d 	c #565656",
"e 	c #666666",
"f 	c #676767",
"g 	c #6F6F6F",
"h 	c #686868",
"i 	c #717171",
"j 	c #555555",
"k 	c #3E3E3E",
"l 	c #696969",
"m 	c #848484",
"n 	c #737373",
"o 	c #858585",
"p 	c #4E4E4E",
"q 	c #272727",
"r 	c #3C3C3C",
"s 	c #464646",
"t 	c #474747",
"u 	c #3D3D3D",
"v 	c #444444",
"w 	c #454545",
"x 	c #3F3F3F",
"y 	c #4C4C4C",
"z 	c #494949",
"A 	c #4D4D4D",
"B 	c #4B4B4B",
"C 	c #424242",
"D 	c #2B2B2B",
"E 	c #292929",
"F 	c #282828",
"G 	c #252525",
"H 	c #4A4A4A",
"I 	c #4F4F4F",
"J 	c #505050",
"K 	c #585858",
"L 	c #545454",
"M 	c #404040",
"N 	c #414141",
"O 	c #313131",
"P 	c #2A2A2A",
"Q 	c #888888",
"R 	c #5B5B5B",
"S 	c #595959",
"T 	c #5D5D5D",
"U 	c #5E5E5E",
"V 	c #575757",
"W 	c #525252",
"X 	c #8A8A8A",
"Y 	c #ACACAC",
"Z 	c #AEAEAE",
"` 	c #9F9F9F",
" .	c #A9A9A9",
"..	c #A7A7A7",
"+.	c #A4A4A4",
"@.	c #B0B0B0",
"#.	c #B7B7B7",
"$.	c #9D9D9D",
"%.	c #B5B5B5",
"&.	c #A5A5A5",
"*.	c #A6A6A6",
"=.	c #B6B6B6",
"-.	c #BBBBBB",
";.	c #949494",
">.	c #8E8E8E",
",.	c #929292",
"'.	c #939393",
").	c #A1A1A1",
"!.	c #9E9E9E",
"~.	c #9C9C9C",
"{.	c #999999",
"].	c #989898",
"^.	c #A0A0A0",
"/.	c #909090",
"(.	c #919191",
"_.	c #9A9A9A",
":.	c #9B9B9B",
"<.	c #A2A2A2",
"[.	c #A3A3A3",
"}.	c #A8A8A8",
"|.	c #AAAAAA",
"1.	c #ABABAB",
"2.	c #979797",
"3.	c #ADADAD",
"4.	c #B3B3B3",
"5.	c #B1B1B1",
"6.	c #B2B2B2",
"7.	c #B4B4B4",
"8.	c #AFAFAF",
"9.	c #B9B9B9",
"0.	c #BEBEBE",
"a.	c #BFBFBF",
"b.	c #BABABA",
"c.	c #BCBCBC",
"d.	c #B8B8B8",
"e.	c #BDBDBD",
"f.	c #C4C4C4",
"g.	c #C2C2C2",
"h.	c #C1C1C1",
"i.	c #C3C3C3",
"j.	c #C0C0C0",
"k.	c #C6C6C6",
"l.	c #C7C7C7",
"m.	c #C9C9C9",
"n.	c #C8C8C8",
"o.	c #CACACA",
"p.	c #D1D1D1",
"q.	c #EAEAEA",
"r.	c #CECECE",
"s.	c #CDCDCD",
"t.	c #E8E8E8",
"u.	c #C5C5C5",
"v.	c #6A6A6A",
"w.	c #CCCCCC",
"x.	c #D4D4D4",
"y.	c #DADADA",
"z.	c #D7D7D7",
"A.	c #6D6D6D",
"B.	c #DBDBDB",
"C.	c #E0E0E0",
"D.	c #DFDFDF",
"E.	c #DCDCDC",
"F.	c #D6D6D6",
"G.	c #D0D0D0",
"H.	c #D3D3D3",
"I.	c #D5D5D5",
"J.	c #2D2D2D",
"K.	c #2C2C2C",
"L.	c #6B6B6B",
"M.	c #707070",
"N.	c #CFCFCF",
"O.	c #DDDDDD",
"P.	c #DEDEDE",
"Q.	c #D8D8D8",
"R.	c #D9D9D9",
"S.	c #2F2F2F",
"T.	c #D2D2D2",
"U.	c #E2E2E2",
"V.	c #CBCBCB",
"W.	c #E1E1E1",
"X.	c #E3E3E3",
"Y.	c #E4E4E4",
"Z.	c #E5E5E5",
"`.	c #E7E7E7",
" +	c #E9E9E9",
".+	c #EBEBEB",
"++	c #ECECEC",
"@+	c #E6E6E6",
"#+	c #EEEEEE",
"$+	c #EDEDED",
"%+	c #EFEFEF",
"&+	c #F1F1F1",
"*+	c #F2F2F2",
"=+	c #F3F3F3",
"-+	c #F4F4F4",
";+	c #F7F7F7",
">+	c #F9F9F9",
",+	c #FAFAFA",
"'+	c #FBFBFB",
")+	c #F5F5F5",
"!+	c #F0F0F0",
"~+	c #F6F6F6",
"{+	c #FCFCFC",
"]+	c #FEFEFE",
"^+	c #FFFFFF",
"/+	c #F8F8F8",
"(+	c #656565",
"_+	c #646464",
"                                                    . + @ # $ # % & * = - ; > , , ' ) ! ~ { ] ^ { ^ ^ / ( ( { ( / ^ ] ! -                             ",
"                        , ~ / _ ( / ( : / ^ ^ ] ] ] { ] ~ { ~ ! ! ! ) ) ) ' ) ~ ! ~ ~ ~ ~ { ] { ' ! ) ) ! ! ] { ! ! ! ! ! ! { =                       ",
"                      < ^ ^ ] { ~ ~ { : ^ ~ ~ ~ ! ! ~ [ } | 1 2 3 4 5 3 2 4 3 6 7 4 3 1 4 1 8 2 , , > > , ) : ! , , ' ' ' ' ! !                       ",
"                    9 { ~ ~ ! ) ' ' ^ _ ~ ' ' ' ' ' ( 0 1 a b c d e c f g h ( i ) < : 9 f j a k l i , , m - n > ; ; ; ; ; ; > > -                     ",
"                    / ! ) , , , ; , ( ] ' o = p k 8 q 6 r s } t u v w x y r p x z w k A | B u C D E F F ] > _ - o o o o m m - - >                     ",
"                    { > , ; - - m ; ] ~ ' o ( F F G E 1 u t C H t y A I j J b b K L J J H A M N O P F F f ( ' = & & Q Q * * o o o -                   ",
"                  ) ; ; ; ; m m = > { ' > m ) M 3 6 } u N a s z H p b j R S S T c U R T S R d L V b W K , g * X # # X X Q Q Q * o =                   ",
"                  ] ; ; m m = = = > ) > - , X & Q & & $ Y + Z `  ...+.@.` #.$.%.&.Z Z *.=.` -.;.>.$ # $ m < % >.>.@ X X X X & Q * Q                   ",
"                ; > - - o o = Q = > ' o = = ! o % # $ ,.&.'.).!.).*.~. .{.+.].!.^.{.*.+ *./.^.& >.$ @ , ^ @ ,.;.;./.% % % % X X & & &                 ",
"                > m = = * * = Q X m m X $ $ # m ; Q # /.o X ' % = % = X Q o & > @ ) (., '.- (.% @ X o @ ].{._.~._.+ /./.@ @ @ @ >.>.%                 ",
"                - & X X % % $ $ $ # Q /.'.+ . . + + ,.'.. + ;.;.,.,.(.(.>./.(.@ ;.(.].].{._.:._.:.$.^.^.).).<.[.<._.. . ;.;.;.;.'.'.;..               ",
"              * @ @ (.(.(.(.'.'.;.,.(.].~.!.^.^.).).).).).).).).).).<.<.+.}.|.*.[.*.*.*.}. . . .|.1.1.1.1.1.1.1. .^.:.:._._._._._._.2..               ",
"            % $ ;.;.. . ].2.].].{.{.:.).[.&...}. .|.1.1.Y Y Y Y 3.3.3.Z %.=.=.4.5.5.6.6.6.6.6.6.7.7.7.7.4.7.6.5.1.^.!.!.$.` $.~.$.$.!.~._.            ",
"            # '.'.'.. . _.~.$.$.^.^.^.*.1.Z 8.@.5.4.7.7.%.%.%.%.=.=.#.9.0.a.a.-.-.-.b.b.-.-.b.b.c.c.c.c.-.-.=.Z *.+.+.+.<.$.~.` <.<.).^.:.].          ",
"          (.].` [.+.[.^.~.]._.^.+.+.&.*.|.@.%.d.#.#.b.b.-.-.-.-.c.0.e.a.f.f.g.g.g.g.g.g.h.h.g.g.g.i.i.g.a.#.3.|.}.}.*.+.~.<...}.1.Y |.}.+.).:.`       ",
"      ;.].$.` ).1.1.)...^.:.+ ~. . .|.|.|.|.8.4.#.c.0.0.j.j.g.g.i.f.f.k.l.l.l.l.m.m.n.n.l.l.n.n.l.i.c.d.4.8.8.Y 1.1...(.$.[.+.Y &.7.b.Y |.$.2.;.{.    ",
"    '.(.. {.&.. 9.n.e.<.;././.:.*.Z Z Z Z Z Z Z 8.8.5.7.9.c.a.h.f.f.l.l.l.m.o.o.m.m.n.k.f.i.0.9.d.#.%.%.7.7.4.5.8.Y {.Q :.. 2.~.^.p.q.r.` >.# # 2.    ",
"    ] >.% % (.:.s.t.u.+ - Q :.8. .5.@.@.8.8.@.@.@.@.6.5.6.6.4.%.=.=.=.=.%.4.%.%.4.4.7.%.=.7.=.=.9.9.d.d.#.#.#.%.6.Z ;.,.+.[.,.% 2.=.f.Y & ; X ).}.+.  ",
"  { ~ ,.. X ; * 2.^.;.# !.9.u.b.Z %.7.6.5.6.6.5.6.5.@.1.&.` :.].]._.{.i v.v.l h - !.{.. {._.^.+.1.5.%.b.b.9.9.d.#.5._.` 3.9.g.a.=.7.4.5.6.a.o.k.=.4.  ",
"  < & ].Y c.a.a.u.w.x.y.z.r.n.g.1.|.*.+.[.).^.` _.m { >.. . /.2.~.^.# 2 4 1 4 5 R ~.{.:.o Q $.$.A.U : !.^.^.` +.[.^.` ).%.h.l.r.x.B.C.D.E.F.G.m.c.}.  ",
"  ; m ^.7.e.f.w.H.z.F.z.I.x.s.a.8.` :._.]._._.~.f 2 } h }.v 1 M $...` v J.K.D O i $.|.L.| 0 M.*.M N u :.}.....[.[.[. .b.0.k.N.F.B.O.D.D.C.P.Q.N.a.|.  ",
"  { o ` 4.g.s.x.R.P.D.D.B.I.s.k...` :.+ >.+.+.*.(.^ o <.}.i g ! |.6.8.n 8 J.S.1 _.5.%.&.m ; $.4.Y ` +.@.6.6.5.Y ....}.g.n.w.T.Q.B.P.C.C.U.D.Q.N.h.|.  ",
"  _ o !.7.h.V.H.Q.E.P.D.O.I.V.0.!.` ~.,.'.1.Y Z @.6.4.7.7.=.-.9.9.9.b.3.L z H i Z b.b.b.c.c.-.c.-.-.b.b.9.9.9.6.Y  .|.0.s.r.x.Q.E.E.P.P.C.O.z.w.h.|.  ",
"  9 * ~. .h.m.p.Q.E.P.y.T.n.h.Z ` ).` + ~.6.7.=.#.d.9.b.-.c.a.a.j.j.j.c.5.*.*.Z e.g.h.h.h.h.h.h.h.h.j.j.j.j.j.9.@.3.Y d.w.w.s.G.x.x.F.F.H.G.o.c.i.Y   ",
"  , & '.*.0.g.k.m.o.l.k.f.h.c.[.+.+.<.2. .0.a.a.h.g.g.i.f.u.f.f.u.k.k.m.m.k.n.V.m.n.m.m.m.m.o.o.o.o.w.w.V.V.w.j.4.8.3.%.w.o.o.m.n.4./.<.l.l.f.d.f.@.  ",
"  ; $ X 4.-.e.j.h.h.j.j.j.0.9.$. . .*._.d.m.w.w.r.r.G.G.p.p.T.T.H.N.- n % x.k.v.v.$.F.F.z.z.Q.Q.R.R.R.R.Q.Q.R.w.9.%.4.=.V.V.o.n.1.7 5 O g f.i.c.a.4.  ",
"  ! @ X d.-.c.0.a.a.a.a.a.c.=.:.=.=.%.}.f.T.x.I.z.Q.R.R.B.B.E.O.P.z.W V T z.c.d U / W.W.W.W.W.W.U.U.X.X.U.U.W.z.o.k.f.f.o.r.o.n.( 4 8 O 0 c.f.j.b.=.  ",
"  { @ /.b.e.e.0.h.h.a.a.0.b.4.~.l.l.n.d.s.B.E.O.P.D.C.C.U.U.Y.Z.Z.Z.f.j.o.`.Z.V.m.F. + + + +q.q..+.+++++++++.+W.z.x.H.H.w.G.s.V.>.r N M v -.f.f.-.b.  ",
"  ] X . e.a.a.a.i.i.j.a.0.9.6.` p.p.x.k.I.D.U.Y.Y.Z.Z.@+@+t. +q.q..+++#+$+$+#+%+&+&+&+&+&+&+&+&+*+*+*+*+*+*+=+ +D.O.B.B.N.T.N.r.V.. h v.<.n.k.n.0.-.  ",
"  ! = '.e.a.h.h.i.i.g.j.0.d.6.}.Q.Q.R.T.O.U.@+t.q.q.++$+%+&+=+-+;+;+;+>+>+>+>+,+'+'+'+'+'+'+'+'+,+,+>+>+;+;+)+!+X.W.C.C.p.x.p.G.s.V.w.o.m.o.m.V.e.=.  ",
"  ' o X -.a.g.g.i.f.f.g.a.9.8.8.B.B.O.O.Y.@+ +++++$+&+-+~+>+'+{+]+]+^+^+^+^+^+^+^+^+^+^+^+^+]+]+]+]+{+,+,+;+*+.+Y.X.U.U.H.I.T.p.r.s.w.w.V.o.w.V.9.4.  ",
"    ' ; 8.h.i.i.f.u.u.i.j.9.Z 7.D.D.D.W.W.Y.t..+++#+&+=+~+,+'+{+]+]+^+^+^+^+^+^+^+^+^+^+]+]+{+{+{+{+,+/+=+!+ +`.`.`.Z.Z.F.z.H.T.r.s.r.r.w.G.F.u.#.5.  ",
"    ] ) !.0.u.f.u.u.k.k.h.9.3.9.D.C.U.X.X.X.@+@+q.$+!+&+*+-+~+~+>+>+'+'+{+{+{+{+{+{+,+,+/+/+>+>+'+>+-+!+$+++$+$+.+.+ + +R.R.I.H.p.N.N.G.Q.P.H.h.5.    ",
"    > ) ].5.k.w.m.m.m.m.u.e.8.e.U.X.@+`.`.`. + +q.$+%+!+)+~+~+~+;+;+~+~+;+;+;+;+;+;+/+/+>+>+~+~+-+=+&+!+!+!+!+!+%+%+#+#+O.O.E.y.E.P.U.t.Z.E.T.h. .    ",
"    ~ < 2.3.e.o.x.R.B.E.R.G.c.f.Y.@+t. + +q.q..+++++++++$+$+#+#+!+!+%+!+#+#+$+#+$+$+#+$+q.q. + + +t.@+@+@+@+Y.X.U.U.D.O.N.*+=+*+!+!+q.@+C.y.p.a.      ",
"      { 2.3.-.n.T.R.D.C.U.E.s.<.R.R.y.E.E.P.D.C.X.X.Y.Y.`.`. + +.+.+.+.+++$+#+!+&+&+&+!+=+=+=+=+*+*+*+*+&+&+%+%+#+#+#+++e.$+%+++$+++ +@+C.y.G.0.      ",
"      % . Y -.l.p.R.D.W.W.E.r.).q. +W.E.B.O.O.P.D.C.D.D.C.C.C.C.U.U.W.W.X.X.U.U.X.X.Y.X.Z.Z.Z.Z.`.`.`.`.@+@+Y.U.W.y.++q.m.++++.+.+.+t.Z.U.B.N.0.      ",
"      - '.|.b.k.N.Q.B.E.O.Q.s.&.@+ +R.@+ +q.q.++#+%+!+!+*+*+*+*+=+-+-+-+-+-+=+=+=+=+=+=+=+=+&+&+=+=+&+&+%+%+%+#+$+B.++@+s.%+#+#+++++q.`.U.B.G.a.      ",
"      >.,. .d.k.G.R.D.U.W.O.x.|.C. +y.`. + + +.+.+++$+$+#+#+!+!+!+&+&+&+!+!+&+&+&+&+&+&+*+*+!+!+!+!+!+!+!+!+%+#+$+B.$+U.F.&+!+%+#+$+q.@+U.B.N.c.      ",
"        Q }.d.k.G.Q.D.U.W.O.F. .z. +y.`. + + +.+++$+$+$+%+%+!+!+!+!+&+&+!+!+&+&+&+&+*+*+*+*+!+!+!+!+!+!+!+!+#+#+$+y.#+O.Q.*+!+%+#+$+q.@+X.B.w.*.      ",
"        < +.9.u.N.Q.D.U.U.P.z.@.r. +E.@+ + +q.q.q.q.q.q. +q.t.t.t. + +q. + + + + + +@+Z.X.U.C.D.E.E.E.B.y.y.B.B.O.z.$+Q.E.&+!+%+#+++q.@+X.z.e.        ",
"          o Z i.r.Q.D.U.U.P.R.#.u.t.U.x.H.x.H.H.I.I.z.z.R.P.Y.`..+++$+$+#+#+#+#+!+!+%+%+#+++q. +`. +q. +q. +++++.+++#+x.U.%+%+#+$+.+Z.W.R.p.7.        ",
"          ] ^.=.k.N.z.B.E.Q.x.c.a.`. + +q. + +.+++$+ +q.%+%+!+%+&+*+*+*+*+*+*+=+&+&+*+*+*+C.&+%+%+#+%+$+ + + +++#+#+$+p.W.t.t.t.`.`.Z.W.T..           ",
"            g {.u.T.y.P.P.R.F.a.c.@+t.t.q.) m .+q.1.o # i.#+G.3.++!+!+!+&+&+&+*+&+&+*+*+!+++$+.+.+.+%+z.Z.Z.Z.B.#+#+.+N.`.%+#+.+.+Y.G.$.o             ",
"              ~ / /.5.i.V.V.s.a.-.@+@+@+ +o ~ .+q.#.5.=.m.$+@+U.$+#+%+%+%+%+!+&+&+&+!+!+!+!+%+%+#+#+%+.+.+.+ +.+$+.+q.N.c.,.X = > ] (                 ",
"                    < _ g L.h * j.Y.`.`.`.`.t.@+t.t. + + +q..+++++++++++$+$+++++++++#+#+$+$+#+#+$+$+#+#+$+$+$+$+$+.+q.X.V.                            ",
"                              & 9.R.Q.Q.z.F.I.x.p.p.G.r.w.w.m.k.u.f.g.0.c.b.#.%.6.@.Z 1.|...+.<.^.!.$.:.{.2.+ ;.,./.@ ;.                              ",
"                                ( g i : _ ( ] ~ _ (+_+( - , < 9 / ~ ' ; = X >.;.2.                                                                    "};
