/* XPM */
static char * emulate_xpm[] = {
"47 14 111 2",
"  	c None",
". 	c #787878",
"+ 	c #9B9B9B",
"@ 	c #424242",
"# 	c #6B6B6B",
"$ 	c #515151",
"% 	c #8E8E8E",
"& 	c #B6B6B6",
"* 	c #6C6C6C",
"= 	c #444444",
"- 	c #484848",
"; 	c #B4B4B4",
"> 	c #4B4B4B",
", 	c #6A6A6A",
"' 	c #3E3E3E",
") 	c #797979",
"! 	c #717171",
"~ 	c #414141",
"{ 	c #9D9D9D",
"] 	c #505050",
"^ 	c #6D6D6D",
"/ 	c #454545",
"( 	c #727272",
"_ 	c #969696",
": 	c #2D2D2D",
"< 	c #6F6F6F",
"[ 	c #4E4E4E",
"} 	c #A8A8A8",
"| 	c #2C2C2C",
"1 	c #9C9C9C",
"2 	c #838383",
"3 	c #ACACAC",
"4 	c #737373",
"5 	c #747474",
"6 	c #3A3A3A",
"7 	c #323232",
"8 	c #555555",
"9 	c #9A9A9A",
"0 	c #848484",
"a 	c #A7A7A7",
"b 	c #535353",
"c 	c #2B2B2B",
"d 	c #3B3B3B",
"e 	c #595959",
"f 	c #AFAFAF",
"g 	c #6E6E6E",
"h 	c #818181",
"i 	c #A2A2A2",
"j 	c #4F4F4F",
"k 	c #767676",
"l 	c #292929",
"m 	c #242424",
"n 	c #282828",
"o 	c #3F3F3F",
"p 	c #949494",
"q 	c #404040",
"r 	c #313131",
"s 	c #878787",
"t 	c #999999",
"u 	c #888888",
"v 	c #7C7C7C",
"w 	c #7F7F7F",
"x 	c #2F2F2F",
"y 	c #646464",
"z 	c #353535",
"A 	c #828282",
"B 	c #2A2A2A",
"C 	c #272727",
"D 	c #7A7A7A",
"E 	c #545454",
"F 	c #8A8A8A",
"G 	c #ADADAD",
"H 	c #262626",
"I 	c #B0B0B0",
"J 	c #808080",
"K 	c #B3B3B3",
"L 	c #606060",
"M 	c #252525",
"N 	c #9F9F9F",
"O 	c #A3A3A3",
"P 	c #303030",
"Q 	c #A6A6A6",
"R 	c #A9A9A9",
"S 	c #9E9E9E",
"T 	c #8D8D8D",
"U 	c #A4A4A4",
"V 	c #232323",
"W 	c #929292",
"X 	c #A0A0A0",
"Y 	c #3D3D3D",
"Z 	c #666666",
"` 	c #4C4C4C",
" .	c #707070",
"..	c #696969",
"+.	c #A5A5A5",
"@.	c #7E7E7E",
"#.	c #8F8F8F",
"$.	c #686868",
"%.	c #B2B2B2",
"&.	c #B1B1B1",
"*.	c #7D7D7D",
"=.	c #5F5F5F",
"-.	c #5A5A5A",
";.	c #464646",
">.	c #636363",
",.	c #939393",
"'.	c #898989",
").	c #979797",
"!.	c #474747",
"~.	c #2E2E2E",
"{.	c #616161",
"                                                        . +                                   ",
"                                                        @ #                 $ %               ",
"        & * = - ;                                       > ,                 ' )               ",
"      ! ~ {                                             ] ^                 / (               ",
"    _ : ;                                               ] <                 [ ^               ",
"    } | ) 1 2 3                                         $ 4             5 6 7 8 9 0 a         ",
"      b c d e f     , g                 h i             j k               g l m n o p   ;     ",
"    * q f         d r r   s l t         | u     v       = w   ( x y         z A   _ 6 B C )   ",
"  D o           E q F c G | H h y c     C I   J m K     7 %   C L M         | N O H m @ H k   ",
"& P Q         R B S T x > [ n ~ m M   U n     j V W     B X 0 r   j Y       l   [ q Z * 1     ",
"A o           ^ 6   A n c G C m ` n f } n   9 C |  .  K l K ..~   | m     +.n   c @.          ",
"< j       #.  = $.  D l ,   = ~ %.| &.  n *.7 ( =.-.  3 B   2 C 7 7 H &   Q l   ;.@       >.# ",
"_ P v ,.;.A   x '.    J           F     g : >.  J $   f c     ).*.; B i     G     !.: q ~.$.  ",
"  X $.{.S     a                                   K     _           L Q             I W       "};
