/* XPM */
static char * gb1_xpm[] = {
"41 48 166 2",
"  	c None",
". 	c #8E8E8E",
"+ 	c #878787",
"@ 	c #727272",
"# 	c #6F6F6F",
"$ 	c #8A8A8A",
"% 	c #737373",
"& 	c #575757",
"* 	c #505050",
"= 	c #4B4B4B",
"- 	c #5B5B5B",
"; 	c #626262",
"> 	c #787878",
", 	c #7E7E7E",
"' 	c #7B7B7B",
") 	c #818181",
"! 	c #767676",
"~ 	c #838383",
"{ 	c #6E6E6E",
"] 	c #323232",
"^ 	c #363636",
"/ 	c #353535",
"( 	c #333333",
"_ 	c #3C3C3C",
": 	c #404040",
"< 	c #5C5C5C",
"[ 	c #7A7A7A",
"} 	c #808080",
"| 	c #8B8B8B",
"1 	c #909090",
"2 	c #757575",
"3 	c #464646",
"4 	c #313131",
"5 	c #343434",
"6 	c #373737",
"7 	c #383838",
"8 	c #3B3B3B",
"9 	c #414141",
"0 	c #6C6C6C",
"a 	c #797979",
"b 	c #898989",
"c 	c #919191",
"d 	c #8C8C8C",
"e 	c #8D8D8D",
"f 	c #6D6D6D",
"g 	c #3A3A3A",
"h 	c #424242",
"i 	c #444444",
"j 	c #434343",
"k 	c #3E3E3E",
"l 	c #3D3D3D",
"m 	c #393939",
"n 	c #4F4F4F",
"o 	c #5A5A5A",
"p 	c #828282",
"q 	c #888888",
"r 	c #A3A3A3",
"s 	c #BDBDBD",
"t 	c #C6C6C6",
"u 	c #747474",
"v 	c #494949",
"w 	c #5F5F5F",
"x 	c #535353",
"y 	c #515151",
"z 	c #4C4C4C",
"A 	c #484848",
"B 	c #454545",
"C 	c #969696",
"D 	c #676767",
"E 	c #707070",
"F 	c #7F7F7F",
"G 	c #7D7D7D",
"H 	c #606060",
"I 	c #4A4A4A",
"J 	c #B5B5B5",
"K 	c #636363",
"L 	c #5E5E5E",
"M 	c #3F3F3F",
"N 	c #7C7C7C",
"O 	c #868686",
"P 	c #656565",
"Q 	c #B0B0B0",
"R 	c #303030",
"S 	c #595959",
"T 	c #858585",
"U 	c #848484",
"V 	c #999999",
"W 	c #A6A6A6",
"X 	c #474747",
"Y 	c #AEAEAE",
"Z 	c #959595",
"` 	c #2F2F2F",
" .	c #777777",
"..	c #AAAAAA",
"+.	c #9E9E9E",
"@.	c #616161",
"#.	c #2C2C2C",
"$.	c #2D2D2D",
"%.	c #2E2E2E",
"&.	c #6A6A6A",
"*.	c #9F9F9F",
"=.	c #9A9A9A",
"-.	c #696969",
";.	c #2B2B2B",
">.	c #929292",
",.	c #939393",
"'.	c #4E4E4E",
").	c #525252",
"!.	c #717171",
"~.	c #6B6B6B",
"{.	c #5D5D5D",
"].	c #686868",
"^.	c #585858",
"/.	c #646464",
"(.	c #4D4D4D",
"_.	c #666666",
":.	c #565656",
"<.	c #545454",
"[.	c #9C9C9C",
"}.	c #979797",
"|.	c #9D9D9D",
"1.	c #9B9B9B",
"2.	c #8F8F8F",
"3.	c #B2B2B2",
"4.	c #A1A1A1",
"5.	c #A4A4A4",
"6.	c #989898",
"7.	c #A8A8A8",
"8.	c #B8B8B8",
"9.	c #BCBCBC",
"0.	c #BABABA",
"a.	c #B7B7B7",
"b.	c #ACACAC",
"c.	c #ABABAB",
"d.	c #A2A2A2",
"e.	c #A0A0A0",
"f.	c #B9B9B9",
"g.	c #ADADAD",
"h.	c #B4B4B4",
"i.	c #AFAFAF",
"j.	c #C4C4C4",
"k.	c #C7C7C7",
"l.	c #C3C3C3",
"m.	c #C8C8C8",
"n.	c #C5C5C5",
"o.	c #C1C1C1",
"p.	c #BFBFBF",
"q.	c #BBBBBB",
"r.	c #D5D5D5",
"s.	c #CFCFCF",
"t.	c #BEBEBE",
"u.	c #A9A9A9",
"v.	c #CCCCCC",
"w.	c #CBCBCB",
"x.	c #A7A7A7",
"y.	c #C2C2C2",
"z.	c #CECECE",
"A.	c #CACACA",
"B.	c #CDCDCD",
"C.	c #A5A5A5",
"D.	c #B3B3B3",
"E.	c #949494",
"F.	c #C0C0C0",
"G.	c #D1D1D1",
"H.	c #555555",
"I.	c #B1B1B1",
"                                                                                  ",
"                          . + @ #                                                 ",
"                        $ % & * = - ; > , ' ) ! ~                                 ",
"                        { & ] ^ / ( / _ : < # [ } ~ ) | 1                         ",
"                      2 ! 3 4 5 5 / 6 6 6 7 8 9 3 * ; 0 a ~ b c d e               ",
"                      , f g 4 ( ( 8 h h i j k l m 7 7 8 l h n o { p q r s t       ",
"                      u v ( ( 5 6 < ! % 0 w x y z A B : l 8 7 ^ ^ 6 8 3 - ! C     ",
"                    + D 9 ( m 6 _ E F } p } G [ ! { H & * = z I B l 6 ^ 6 8 u J   ",
"                    K L 6 ^ M 8 A N ) + O b b + O ~ ) G ' E 0 P < z 6 6 ^ 6 ! Q   ",
"                    + y ] R ( 7 S } p T b | d $ b b U p F ~ p ) ) - / ^ ^ 8 V W   ",
"                    b X 4 R ] g D F ) p p O b $ $ $ T T O + O + F = 5 / 6 A Y W   ",
"                  Z E m ` R 4 i E ) ) } p p U q $ | $ | $ q q +  .k 5 5 6 & ..+.  ",
"                  @.* #.$.%.` x [ F G G ) p ) U O q $ | d $ | q &.g 5 / l  .*.=.  ",
"                -.H : #.$.#.` K , } F } p p } + + + O + $ | d $ < 6 ^ / h ' .     ",
"                @ L ^ ;.$.` ( @ F } p } ~ } ) ~ p O + T b d d q I 5 / 6 z >.,.    ",
"                E '.` ;.#.#.l % p p ~ O p O ) ~ T U + + q d | F g 5 / ^ w V 1     ",
"              F P M #.;.$.$./ ).D !.' F O ~ p U T O O T O | | ~.^ / 5 7 f d       ",
"              {.].5 #.;.$.%.` ( 5 7 9 I - &. .p + q q T b d O ^.5 / ( l } )       ",
"              /.).5 ` $.%.$.^ I ^.(.= k l 6 / g j ).P f > , [ i ] ( 5 A + e       ",
"              _.* 7 / m _ / 5 g 9 l I B ).v = _ k g 8 8 : B X / 5 ( 5 S C Z       ",
"            % P '.k 7 j x (.3 j h 7 / / 6 8 8 k z x :.<.).g ( ( ] ( ^ !.[.        ",
"            H /.~.@ ].# 2 &./.w o S & (.A 9 l m 6 m : 3 I ^ 5 ( 5 / 8 | }.        ",
"            E a b }  .! [ G } , 2 !.0 -.P H & x ).'.z A B : 8 l m g * |.1.        ",
"          @.T F ' /.).* &.G | }.2.b p } [ [ u u # ].]._./.K P a 0 -.} Y 3.        ",
"          # N _.w = ^ ( = 0 ~ *.Q ..4.*.*.}.,.e $ d | T F , 1 5.6.=.7.J           ",
"          ! ~.i 8 _ ^ 5 8 y u Z 8.9.s 0.9.a.J b.c.b.7.d.e.=.3.f.g.5.h.i.          ",
"        ].> )./ ( _ _ / 4 8 /.>.8.j.k.l.t k.m.n.o.p.q.8.0.8.r.  s.n.t.*.          ",
"        % G (.h _ 5 7 ( 5 7 - b +.u.k.v.w.w.n.8.Y f.7.b.a.x.=.9.  s.y.e.          ",
"        2 ! < (.: ( 5 g I - u 2.d 1 t z.v.A.4.S :.2 [.b., n <.,     x.            ",
"      % % !.; <.B B 3 n <.; N 5.=...B.s.w.t.@ h A 0 G d = : I ].C   C.            ",
"      #  .K ' E K /.E 0 @.E O c.Y 0.v.A.k.c.@./ 8 k % p x A 3 {.h.l.c.            ",
"      , T 2 F F ) ~ b , ~.[ ..D.J o.v.k.o.4.E ; ; { } f > Z Z 7.m.9.              ",
"    &.b >. .u > } + E.>.@ } p.o.9.k.A.y.t.u.>.U U Z V U u.F.J t.v.J               ",
"    % C . ; _.K L @.! T ~ @ a Z C.p.j.k.l.Q E.T C.D.x.i.k.A.q.J t u.              ",
"    ) d.6.< S @.- {.% N a x ^ 9 ; [ ! [ c [.d F 7.i.*.b.G.  n.F.p.e.              ",
"  a b g.d.].x _.K _.a U f ).3 X y o M ( M &.) [ ~ N > b 3.9.v.B.f.Y               ",
"  ! E.x.2._.z L /.; c V @ H.).<.H.H.* '.y :.w @.w /.!.) + . h.w.Y                 ",
"  N ,.~ ].- y ; @.! |.5.1 2 &.K K L ^.:.& o < _.~.@ ~ ,.e ) e I.x.                ",
"  . + # ^.H.H /.S b d.a.I.d.,.c d [ # ].K /.P @ u U 1.[.c e ~ e.+.                ",
"  6.c a f @.:.& { [ =.f.d.| V c.+.1.. T $ 0 /.~.q E.C.5.[.r =.|.e                 ",
"  e . q p a { 0 # ~ x.F.+.}.e.W g.5.| 2.$ 2 P -.} C [.+.V r e.E.=.                ",
"    ; } U d O ) b b Z x.2.*...u.Q =.7.7.,.[ @.H ~.> $ O O . ,..                   ",
"      y ^.H E q +.*.r 4.U b =.,.r . [.x.1 + _.S _.].u % > a $ Z                   ",
"            -.w &. .O =.. =.u.|.2.p 2.+.1.c } U % @  .% ! [ b                     ",
"                  :.<.D {.# T b } d E.7.x.| + }.2.2.c e Z ,..                     ",
"                      n ^.:.K H h R L U E.2.2.>.6.V [.+.C.1.d.                    ",
"                          > ; w '._ (.L @.P _.# G T b 1 6.c =.                    ",
"                                                                                  "};
