/* XPM */
static char * gb2_xpm[] = {
"33 48 137 2",
"  	c None",
". 	c #929292",
"+ 	c #8C8C8C",
"@ 	c #909090",
"# 	c #939393",
"$ 	c #969696",
"% 	c #999999",
"& 	c #A8A8A8",
"* 	c #888888",
"= 	c #828282",
"- 	c #858585",
"; 	c #8E8E8E",
"> 	c #838383",
", 	c #878787",
"' 	c #8B8B8B",
") 	c #8D8D8D",
"! 	c #8F8F8F",
"~ 	c #9A9A9A",
"{ 	c #818181",
"] 	c #808080",
"^ 	c #747474",
"/ 	c #7D7D7D",
"( 	c #7E7E7E",
"_ 	c #848484",
": 	c #919191",
"< 	c #979797",
"[ 	c #8A8A8A",
"} 	c #7C7C7C",
"| 	c #757575",
"1 	c #5A5A5A",
"2 	c #4E4E4E",
"3 	c #525252",
"4 	c #575757",
"5 	c #5E5E5E",
"6 	c #626262",
"7 	c #696969",
"8 	c #777777",
"9 	c #868686",
"0 	c #898989",
"a 	c #7A7A7A",
"b 	c #6F6F6F",
"c 	c #555555",
"d 	c #282828",
"e 	c #252525",
"f 	c #303030",
"g 	c #373737",
"h 	c #3D3D3D",
"i 	c #424242",
"j 	c #4D4D4D",
"k 	c #646464",
"l 	c #6E6E6E",
"m 	c #737373",
"n 	c #6D6D6D",
"o 	c #7B7B7B",
"p 	c #666666",
"q 	c #4B4B4B",
"r 	c #383838",
"s 	c #323232",
"t 	c #2C2C2C",
"u 	c #262626",
"v 	c #232323",
"w 	c #222222",
"x 	c #212121",
"y 	c #272727",
"z 	c #3E3E3E",
"A 	c #464646",
"B 	c #4C4C4C",
"C 	c #545454",
"D 	c #616161",
"E 	c #686868",
"F 	c #656565",
"G 	c #474747",
"H 	c #595959",
"I 	c #505050",
"J 	c #414141",
"K 	c #404040",
"L 	c #313131",
"M 	c #2B2B2B",
"N 	c #242424",
"O 	c #2A2A2A",
"P 	c #454545",
"Q 	c #5F5F5F",
"R 	c #797979",
"S 	c #727272",
"T 	c #444444",
"U 	c #707070",
"V 	c #676767",
"W 	c #3C3C3C",
"X 	c #2F2F2F",
"Y 	c #494949",
"Z 	c #606060",
"` 	c #6B6B6B",
" .	c #787878",
"..	c #9F9F9F",
"+.	c #A0A0A0",
"@.	c #949494",
"#.	c #ABABAB",
"$.	c #767676",
"%.	c #535353",
"&.	c #3A3A3A",
"*.	c #959595",
"=.	c #A5A5A5",
"-.	c #6A6A6A",
";.	c #717171",
">.	c #515151",
",.	c #A4A4A4",
"'.	c #9B9B9B",
").	c #989898",
"!.	c #4F4F4F",
"~.	c #ACACAC",
"{.	c #B5B5B5",
"].	c #B6B6B6",
"^.	c #B1B1B1",
"/.	c #5C5C5C",
"(.	c #A6A6A6",
"_.	c #7F7F7F",
":.	c #484848",
"<.	c #A7A7A7",
"[.	c #AFAFAF",
"}.	c #A1A1A1",
"|.	c #9D9D9D",
"1.	c #434343",
"2.	c #3F3F3F",
"3.	c #9E9E9E",
"4.	c #ADADAD",
"5.	c #B0B0B0",
"6.	c #5B5B5B",
"7.	c #BABABA",
"8.	c #585858",
"9.	c #636363",
"0.	c #3B3B3B",
"a.	c #4A4A4A",
"b.	c #292929",
"c.	c #393939",
"d.	c #565656",
"e.	c #5D5D5D",
"f.	c #6C6C6C",
"                                                                  ",
"              . + + + @ . # $ % &                                 ",
"              . * = - ; * > , ' ) + ! @ @ ) ~                     ",
"              ; = { ] ^ / ( = - _ > ] = > > - , ' + : <           ",
"              [ } } | 1 2 3 4 5 6 7 8 } ] ( { - ] { = _ - 9 0 0   ",
"              , a } b c d e d f g h i j c 5 k l m } _ 9 - / n o   ",
"              = a a p q r r s t u v v w x y f r z A B C D b E m   ",
"              o a ] F G 4 H I G i J K L M M y N w N O P Q l p m   ",
"              R > ~ S T ^ ; * R U V 1 C c c A W W f X Y Z ` p 8   ",
"            9  .o { Q T - < $ ..+.$ @.; ' #.$.V 1 %.&.j 5 ` p ^   ",
"            o $.^ n %.G ' *.# =.#.@.@.@ @.&  .0 ! * j j D -.V a   ",
"          < 8 ;.S V >.2 : % < & ,.@ = [ '.).$.# # @ I !.V ` F o   ",
"          ] $.;.m D q k ~.{.].].^._ /.a (.# o # . ' B j D E p }   ",
"          _.| S m 1 :.D 1 ` R ~ <., /.. [.! ' }.|.) G j 6 F -.[   ",
"          ( | m S c 1.6 K 2.G ! : ( &.a +.. 3.4.5.*.T >.F F b     ",
"          / l S l B K ` 6./.n _ = / 1.} 7., ' # : D K >.k D |     ",
"          ( U m l >.A U p V a ` c p 8.! ].> @ [ ( !.2.3 6 D }     ",
"           .;.m E 2 1.H H 8.9.6.5 ` 9.3.& ] ; H t 0.J 3 Z Z ^     ",
"          a U S 6 2 P h 0.W J Y G 2 6.~ }.= ' 2.N g i 8.Z D ^     ",
"        , | S U 5 %.8.!.a.T 1.K z 0.W B a.1 k f b.r 1.H Z 9.S     ",
"        0 ;.b n 4 D ` S S F %.1 >.T J i K K h c.g z G 6.Q p $.    ",
"         .| m l H %.3 d.1 V 6 $.` m Z d.1 /.B 1.T P j /.6.D       ",
"        | S ;.U V 6 1 %.j q a.B a.a.c H 9 [ Z 2.2.i I 1 e.V       ",
"        m m U f.-.-.E V p e.1 >.:.A T T T G G J J T >./.e.b       ",
"         .S l ` ` 7 V F E p D 5 Q Z Z /.6.c 3 >.!.>.c 8.D ^       ",
"      - $.U n 7 F 9.V p V D 5 6./.Q Q Z F F p p V E E 7 f.a       ",
"      ; U S -.e./.Q D 6 6 e././.e.e.Q e.5 k F V E -.n b b }       ",
"      ( b f.F 1 8 m /.Z 9.9.6 D /.Q 5 D 5 k V V k -.l l l         ",
"      ;.p Z 6 Q ;.E H Z 5 e.e./.Q 9.D D D 6 p p p 7 f.b S         ",
"      ^ e.f.f.R S S U Z Q e.6.Q /.e.D /.6 D 9.p F 7 -.l S         ",
"      U /.Q V _.( m ` Z 6.e.5 Q e.5 Q 6./.Q F Q c 9.k -.S         ",
"      ;.7 Q j l  .j 4 C 6.e.e.Q Q 5 8.I 6./.5 c j D n Z ^         ",
"    ;.b 7 E %.l $.!.C H /.e.D 5 e.1 I B 3 -.6.C !.Z $.Q U         ",
"    U b n -.4 q C H 1 /.Z Q Z Z /.6.I B C ` 6.6.A c e.k o         ",
"    l b f.p Z e.5 Q /./.D 5 5 /.6.6.d.a.!.8.1 5 H 6.Z f.8         ",
"     .^ l p D Z Z D Q 5 Q e.5 e./.5 1 8.c 1 5 9.9.p E l           ",
"    | U f.F D D Q Q /./././.e.5 /.5 5 /.e.5 Q 9.k 7 ` ;.          ",
"    U n 7 6 6 9.Z Q e./.5 5 e.e.5 e.5 5 Q 5 Q D V 7 ` U           ",
"  ] ` -.p Z Z 6 D 5 6.H 6 e.6./.6.e.e.e.5 5 Z Z -.f.f.8           ",
"  b 9.V 6 D Q Z D e.Z 6 4 H 6.4 D D 8.e.5 e.e.Q F 7 f.f.          ",
"  b k 6 D D Q D Z Q n 0 ( 8 -.m F k e.Q e.1 H 6.5 6 -.n           ",
"  F D D Z Q Q D Z 5 5 V -.l E / { - D 5 1 1 8.1 Z 5 p m           ",
"  p D Z Z Q 5 Q 5 e.Q 5 Q e.5 /.e.e.e./.4 4 1 H e.Z V |           ",
"  o 6 D Q 5 Q 5 Q Q Q 5 5 Q 5 5 5 e.6./.4 d.c 4 4 /.V '           ",
"      ;.E 6 Q Z 6 Z 5 e.5 Q 5 5 1 6.5 6.d.d.4 H 1 e.F             ",
"            V p p 6 5 Q D 5 e.Q 5 5 Q Q 8.8.d.4 H 5 b             ",
"                    a 7 b 6 p V Q D 6 6 6 6 D k k F |             ",
"                                                                  "};
