/* XPM */
static char * icon_16x16_xpm[] = {
"16 16 141 2",
"  	c None",
". 	c #434245",
"+ 	c #3F4041",
"@ 	c #315C5A",
"# 	c #43868C",
"$ 	c #416070",
"% 	c #A7A7A4",
"& 	c #40713A",
"* 	c #059908",
"= 	c #222A2F",
"- 	c #2F3731",
"; 	c #5E8081",
"> 	c #95A6B0",
", 	c #435E73",
"' 	c #463457",
") 	c #5C5C5C",
"! 	c #7F7F7F",
"~ 	c #93A385",
"{ 	c #567D45",
"] 	c #85100E",
"^ 	c #9C393A",
"/ 	c #6B6B6A",
"( 	c #626261",
"_ 	c #91751B",
": 	c #C6A530",
"< 	c #CF922A",
"[ 	c #484F6B",
"} 	c #423256",
"| 	c #888888",
"1 	c #D1D1BB",
"2 	c #B5B37C",
"3 	c #287C1E",
"4 	c #74040C",
"5 	c #864E21",
"6 	c #C08E29",
"7 	c #907B32",
"8 	c #654511",
"9 	c #542E16",
"0 	c #7D4F20",
"a 	c #6C9DBB",
"b 	c #5F4071",
"c 	c #432857",
"d 	c #A89B66",
"e 	c #4C8F34",
"f 	c #08A809",
"g 	c #7F040A",
"h 	c #500E09",
"i 	c #90240D",
"j 	c #413E34",
"k 	c #7D712D",
"l 	c #645D3F",
"m 	c #8E8A77",
"n 	c #5B8088",
"o 	c #4A2C68",
"p 	c #351A2D",
"q 	c #9F661F",
"r 	c #E4BC2D",
"s 	c #B29425",
"t 	c #086809",
"u 	c #089509",
"v 	c #056907",
"w 	c #190406",
"x 	c #6D0509",
"y 	c #87060D",
"z 	c #030303",
"A 	c #29210A",
"B 	c #1E140C",
"C 	c #1A2D36",
"D 	c #432A1E",
"E 	c #603B1F",
"F 	c #14120A",
"G 	c #594216",
"H 	c #71682F",
"I 	c #455A60",
"J 	c #466D7B",
"K 	c #233042",
"L 	c #AAAAAA",
"M 	c #808080",
"N 	c #FEFEFE",
"O 	c #6F6F6F",
"P 	c #616161",
"Q 	c #F7F3F1",
"R 	c #CBACAE",
"S 	c #675859",
"T 	c #471010",
"U 	c #7A1B2E",
"V 	c #74452F",
"W 	c #431512",
"X 	c #223214",
"Y 	c #507E2B",
"Z 	c #2E431E",
"` 	c #8D3A45",
" .	c #6A4542",
"..	c #726363",
"+.	c #5D5C5A",
"@.	c #614536",
"#.	c #9A4B49",
"$.	c #896A20",
"%.	c #7F5338",
"&.	c #654D39",
"*.	c #9B534F",
"=.	c #986D68",
"-.	c #82504D",
";.	c #7F585E",
">.	c #826451",
",.	c #99667B",
"'.	c #9B666B",
").	c #9A6770",
"!.	c #6C4B32",
"~.	c #BC414E",
"{.	c #AA6A60",
"].	c #786658",
"^.	c #B0B1B9",
"/.	c #705F4D",
"(.	c #846543",
"_.	c #B97C4C",
":.	c #816945",
"<.	c #3F4E2C",
"[.	c #58204A",
"}.	c #B92F4A",
"|.	c #B79383",
"1.	c #A8A297",
"2.	c #B4BFC6",
"3.	c #828286",
"4.	c #7A7E90",
"5.	c #658666",
"6.	c #61643E",
"7.	c #59432A",
"8.	c #4E7380",
"9.	c #609EAC",
"0.	c #2B4865",
"a.	c #6D789F",
"b.	c #6A6CD8",
"c.	c #8C9865",
"d.	c #5F5E48",
"e.	c #43333E",
"f.	c #45383C",
"g.	c #333339",
"h.	c #6A6E87",
"i.	c #2E2F2F",
"j.	c #2E2A2C",
"  . +     @ # $         % & *   ",
"  = -   ; > , '       ) ! ~ {   ",
"] ^ / ( _ : < [ }     | 1 2 3   ",
"4 5 6 7 8 9 0 a b c     d e f   ",
"g h i j k l m n o p q r s t u v ",
"w x y z   A B C D E F G H I J K ",
"L M L M L N N M L N N M L N N M ",
"L O L M L P z   L P L M L O L M ",
"L Q R S L N N M L N N M L M L M ",
"T U V W z z     z z z   X Y Z   ",
"`  ...+.L O     L M L @.#.$.%.&.",
"*.=.-.;.L N N M L O L >.,.'.).!.",
"  ~.{.].^.P L M L N N /.(._.:.<.",
"[.}.|.1.2.N N M     L 3.4.5.6.7.",
"  8.9.0.              a.b.c.d.  ",
"  e.f.g.                h.i.j.  "};
