/* XPM */
static char * n64_xpm[] = {
"58 48 132 2",
"  	c None",
". 	c #7E7E7E",
"+ 	c #787878",
"@ 	c #7C7C7C",
"# 	c #757575",
"$ 	c #7F7F7F",
"% 	c #828282",
"& 	c #8E8E8E",
"* 	c #737373",
"= 	c #6E6E6E",
"- 	c #696969",
"; 	c #848484",
"> 	c #868686",
", 	c #9C9C9C",
"' 	c #939393",
") 	c #777777",
"! 	c #6A6A6A",
"~ 	c #676767",
"{ 	c #666666",
"] 	c #707070",
"^ 	c #7B7B7B",
"/ 	c #808080",
"( 	c #7A7A7A",
"_ 	c #717171",
": 	c #6C6C6C",
"< 	c #727272",
"[ 	c #919191",
"} 	c #7D7D7D",
"| 	c #747474",
"1 	c #686868",
"2 	c #6B6B6B",
"3 	c #797979",
"4 	c #858585",
"5 	c #888888",
"6 	c #8F8F8F",
"7 	c #818181",
"8 	c #767676",
"9 	c #8C8C8C",
"0 	c #949494",
"a 	c #6F6F6F",
"b 	c #838383",
"c 	c #8B8B8B",
"d 	c #C1C1C1",
"e 	c #D2D2D2",
"f 	c #C3C3C3",
"g 	c #B1B1B1",
"h 	c #999999",
"i 	c #878787",
"j 	c #6D6D6D",
"k 	c #8D8D8D",
"l 	c #B2B2B2",
"m 	c #CDCDCD",
"n 	c #D1D1D1",
"o 	c #9E9E9E",
"p 	c #959595",
"q 	c #909090",
"r 	c #A0A0A0",
"s 	c #636363",
"t 	c #9D9D9D",
"u 	c #BDBDBD",
"v 	c #CCCCCC",
"w 	c #D3D3D3",
"x 	c #C8C8C8",
"y 	c #BBBBBB",
"z 	c #AFAFAF",
"A 	c #A2A2A2",
"B 	c #979797",
"C 	c #646464",
"D 	c #5F5F5F",
"E 	c #5E5E5E",
"F 	c #AAAAAA",
"G 	c #D4D4D4",
"H 	c #D5D5D5",
"I 	c #C6C6C6",
"J 	c #B0B0B0",
"K 	c #A9A9A9",
"L 	c #929292",
"M 	c #5C5C5C",
"N 	c #606060",
"O 	c #ADADAD",
"P 	c #C0C0C0",
"Q 	c #D8D8D8",
"R 	c #D0D0D0",
"S 	c #A5A5A5",
"T 	c #A8A8A8",
"U 	c #CFCFCF",
"V 	c #656565",
"W 	c #A6A6A6",
"X 	c #CECECE",
"Y 	c #C5C5C5",
"Z 	c #B3B3B3",
"` 	c #CACACA",
" .	c #D7D7D7",
"..	c #B9B9B9",
"+.	c #8A8A8A",
"@.	c #626262",
"#.	c #969696",
"$.	c #BCBCBC",
"%.	c #ABABAB",
"&.	c #9B9B9B",
"*.	c #A3A3A3",
"=.	c #DADADA",
"-.	c #BEBEBE",
";.	c #CBCBCB",
">.	c #B5B5B5",
",.	c #616161",
"'.	c #C4C4C4",
").	c #E2E2E2",
"!.	c #E3E3E3",
"~.	c #D9D9D9",
"{.	c #BFBFBF",
"].	c #9A9A9A",
"^.	c #DCDCDC",
"/.	c #E4E4E4",
"(.	c #E0E0E0",
"_.	c #898989",
":.	c #BABABA",
"<.	c #DDDDDD",
"[.	c #DBDBDB",
"}.	c #C9C9C9",
"|.	c #B7B7B7",
"1.	c #989898",
"2.	c #9F9F9F",
"3.	c #ACACAC",
"4.	c #D6D6D6",
"5.	c #A4A4A4",
"6.	c #DEDEDE",
"7.	c #DFDFDF",
"8.	c #C7C7C7",
"9.	c #AEAEAE",
"0.	c #A7A7A7",
"a.	c #A1A1A1",
"                                                                                                                    ",
"                                                  . + @ # $                                                         ",
"                                                % & . * = - = + ;                                                   ",
"                                              . > , ' ) ! ~ { ! - ] ^ $                                             ",
"                                            / # # ( ^ _ { { { ~ ~ ! : < + / [                                       ",
"                                            } # | _ < = ~ : 1 ~ 1 ! 2 = | 3 $ 4 & 5 6                               ",
"                                          7 + 8 | * < 2 9 0 ; 3 a a _ < ) } 7 ; > > 4 > b 9                         ",
"                                        c . + 8 | # < : d e f g h 5 . ^ } % b > i 4 ; ^ j - 8 (                     ",
"                                        4 @ ( ) 8 3 < 1 k l m n m f g o p q & c 5 5 ; ; r 2 - : a ^                 ",
"                                        $ } @ ^ ( $ a s { ~ } t u v w w x y z A B k ^ l f < C ~ 1 j + }             ",
"                                      i $ . } . / i < D E E s - @ & F x G H n I J > # n d < { 1 : 6 K # # %         ",
"                                    & ; 7 $ $ 7 i L i 1 M M D N - < ( > h O u P , : } Q R S i ^ T U U 9 * * %       ",
"                                    9 4 % / / 4 6 B 0 4 2 s D D V 1 < ( > 9 [ 9 _ < W J X w Y Z `  . ...+ 1 3       ",
"                                  h +.> b $ $ 5 B t 0 9 / | 1 @.~ - 2 ] | ^ +.3 _ #.x R e X I $.d X I %.- = >       ",
"                                  ' +.> 4 c } b , &.k 4 @ | : ~ V V ~ j a * O *.#.x =.n -.;.>.L O Z ..A ] | /       ",
"                                &.[ c >     > c t q 5 } ] 2 1 C N E ,.@.s : I U '.).!.~.X R {.A T z x g # | (       ",
"                                ].' k $       , h k 4 ^ = V s N D E N s s : $.^.=./.(.=. .U g #.*.g u S 8 8 '       ",
"                                W p k > 9 p ].t [ _./ + = 2 V ,.N @.@.C ~ * :.<.^.<.[.~.G }.|.W W t $ ( * ;         ",
"                                  ' k [ [ 1.2., +.% 8 < j 1 s s C C { ( , 3.G ^.[.=.4.H n f >.Z -.S 8 8 3 1.        ",
"                                    6 +.+.1.2.h 5 @ * a 1 C s s C V ) y n U <.^.~.4.U m m ;.v m v S ) # k           ",
"                                      , | 2 ^ > _./ | j { C s @.,.{ 5.6.U U (.6.Q U x Y Y Y ` }.I F 8 +             ",
"            #.  t B                 5 ) s + [ @ B ' . < { C @.@.@.= m <.I ^.!.7. .;.8.;.Y ..{.|.9.B < +.            ",
"                      [             +.$ ]     9 k r W 1.. - @.C @.] }.x d H ^.6.Q X R H f 0 ( ) 8 # ;               ",
"                                  6 4 +         0.F 5.r W > { C s - 0 ].+.r 8.=.~.4.~.w l ; < * | | '               ",
"                    b 3 * # +       ) <               g *.6 + ] { V { ! : ] } O H <.Q y ]._ * # ] _.                ",
"                ; a - ~ V C ~ V - } 7                         q _ ) = - _ < | . %.=.Y a./ ] # _ ^                   ",
"          ; ( ( 7 - 1 { C V C @.@.s ~ ] (                       A A h + _ = j < } %.o 3 ] _ = #                     ",
"      / * j - : b _ ( i _ } ! 2 { ,.N - 3 j                             t ' ; ) ] ] ] 2 2 : ) 0                     ",
"      ) + 5 +.) 3 3 & 0.t 2.k + C s : > z @ |                               ..O 2.q b ^ $ 6 5.                      ",
"    & @ 7 h h , # _ > h ' 0 k : V ~ [ 5.+ 2.[ 7                                                                     ",
"    0 > p 0.].q ^ * } @ _ $ ( { 8 3 8 _.2.+.) #                                                                     ",
"  T h / [ 5.k _.} ) ) _ 3 ] 2 V # | @.] ].= s j                                                                     ",
"  3.5.5 ( +.# 7 . ( 8 a j ~ s ,.,.s C N s @.s :                                                                     ",
"    z *.0 _.> ; $ @ + ) 3 ] V ,.D ,.N N ,.@.s 2 ;                                                                   ",
"      ' i ; 7 $ $ . 7 #.#.> : C N ,.D C ~ C V 2 $                                                                   ",
"    a.. 1 2 @ $ 9 5 p       1 @.] / _.9 % - @.1 @                                                                   ",
"    2.| { 3       9       4 2 2 /       ; ! C - ^                                                                   ",
"  %.q = !           _.L +.| 1 ]         + 2 ~ ! }                                                                   ",
"  B 7 ! a           7 @ ) 2 - )         $ a ~ : b                                                                   ",
"  9 | - #           % ] 2 ! 2 _           * ! a                                                                     ",
"  k a ! @           $ a ! 2 ! )           . : *                                                                     ",
"    | #             % : 1 - : 4             ^ 4                                                                     ",
"      p             6 : 1 1 2                                                                                       ",
"                      a ~ ! <                                                                                       ",
"                      @ ! 2 7                                                                                       ",
"                      ^ j _ /                                                                                       ",
"                        4 5                                                                                         ",
"                                                                                                                    "};
