/* XPM */
static char * nes_xpm[] = {
"103 48 224 2",
"  	c None",
". 	c #D9D9D9",
"+ 	c #D5D5D5",
"@ 	c #D6D6D6",
"# 	c #D7D7D7",
"$ 	c #D4D4D4",
"% 	c #D3D3D3",
"& 	c #D2D2D2",
"* 	c #D1D1D1",
"= 	c #D0D0D0",
"- 	c #CFCFCF",
"; 	c #CCCCCC",
"> 	c #C3C3C3",
", 	c #BBBBBB",
"' 	c #B5B5B5",
") 	c #CBCBCB",
"! 	c #CDCDCD",
"~ 	c #C1C1C1",
"{ 	c #CECECE",
"] 	c #C2C2C2",
"^ 	c #C7C7C7",
"/ 	c #C8C8C8",
"( 	c #C5C5C5",
"_ 	c #C9C9C9",
": 	c #CACACA",
"< 	c #C6C6C6",
"[ 	c #C4C4C4",
"} 	c #BFBFBF",
"| 	c #C0C0C0",
"1 	c #BEBEBE",
"2 	c #B9B9B9",
"3 	c #BABABA",
"4 	c #BCBCBC",
"5 	c #BDBDBD",
"6 	c #B4B4B4",
"7 	c #D8D8D8",
"8 	c #B8B8B8",
"9 	c #B1B1B1",
"0 	c #B2B2B2",
"a 	c #B3B3B3",
"b 	c #B6B6B6",
"c 	c #B7B7B7",
"d 	c #ADADAD",
"e 	c #AEAEAE",
"f 	c #A9A9A9",
"g 	c #AAAAAA",
"h 	c #ABABAB",
"i 	c #ACACAC",
"j 	c #A8A8A8",
"k 	c #A6A6A6",
"l 	c #A4A4A4",
"m 	c #9F9F9F",
"n 	c #A2A2A2",
"o 	c #A3A3A3",
"p 	c #A1A1A1",
"q 	c #A0A0A0",
"r 	c #9B9B9B",
"s 	c #A5A5A5",
"t 	c #AFAFAF",
"u 	c #E2E2E2",
"v 	c #DDDDDD",
"w 	c #DBDBDB",
"x 	c #E1E1E1",
"y 	c #E3E3E3",
"z 	c #E0E0E0",
"A 	c #DADADA",
"B 	c #DCDCDC",
"C 	c #9C9C9C",
"D 	c #E4E4E4",
"E 	c #DFDFDF",
"F 	c #DEDEDE",
"G 	c #919191",
"H 	c #4D4D4D",
"I 	c #313131",
"J 	c #3D3D3D",
"K 	c #6C6C6C",
"L 	c #2E2E2E",
"M 	c #2C2C2C",
"N 	c #505050",
"O 	c #545454",
"P 	c #262626",
"Q 	c #252525",
"R 	c #282828",
"S 	c #646464",
"T 	c #626262",
"U 	c #6D6D6D",
"V 	c #818181",
"W 	c #EBEBEB",
"X 	c #EFEFEF",
"Y 	c #F2F2F2",
"Z 	c #565656",
"` 	c #272727",
" .	c #7D7D7D",
"..	c #4C4C4C",
"+.	c #4A4A4A",
"@.	c #4B4B4B",
"#.	c #515151",
"$.	c #585858",
"%.	c #717171",
"&.	c #888888",
"*.	c #555555",
"=.	c #2B2B2B",
"-.	c #969696",
";.	c #8C8C8C",
">.	c #777777",
",.	c #878787",
"'.	c #A7A7A7",
").	c #525252",
"!.	c #535353",
"~.	c #5E5E5E",
"{.	c #747474",
"].	c #808080",
"^.	c #979797",
"/.	c #373737",
"(.	c #727272",
"_.	c #595959",
":.	c #4F4F4F",
"<.	c #5D5D5D",
"[.	c #707070",
"}.	c #8F8F8F",
"|.	c #838383",
"1.	c #474747",
"2.	c #484848",
"3.	c #4E4E4E",
"4.	c #5C5C5C",
"5.	c #676767",
"6.	c #3A3A3A",
"7.	c #7F7F7F",
"8.	c #575757",
"9.	c #393939",
"0.	c #2F2F2F",
"a.	c #292929",
"b.	c #666666",
"c.	c #464646",
"d.	c #424242",
"e.	c #7C7C7C",
"f.	c #5A5A5A",
"g.	c #3B3B3B",
"h.	c #303030",
"i.	c #6F6F6F",
"j.	c #494949",
"k.	c #444444",
"l.	c #414141",
"m.	c #757575",
"n.	c #E5E5E5",
"o.	c #434343",
"p.	c #5B5B5B",
"q.	c #383838",
"r.	c #3F3F3F",
"s.	c #9E9E9E",
"t.	c #9D9D9D",
"u.	c #949494",
"v.	c #939393",
"w.	c #7A7A7A",
"x.	c #E8E8E8",
"y.	c #333333",
"z.	c #2A2A2A",
"A.	c #8B8B8B",
"B.	c #909090",
"C.	c #404040",
"D.	c #686868",
"E.	c #989898",
"F.	c #454545",
"G.	c #606060",
"H.	c #5F5F5F",
"I.	c #999999",
"J.	c #787878",
"K.	c #828282",
"L.	c #8D8D8D",
"M.	c #8A8A8A",
"N.	c #898989",
"O.	c #8E8E8E",
"P.	c #656565",
"Q.	c #616161",
"R.	c #929292",
"S.	c #1A1A1A",
"T.	c #1F1F1F",
"U.	c #202020",
"V.	c #1E1E1E",
"W.	c #232323",
"X.	c #353535",
"Y.	c #222222",
"Z.	c #868686",
"`.	c #737373",
" +	c #9A9A9A",
".+	c #323232",
"++	c #1B1B1B",
"@+	c #171717",
"#+	c #060606",
"$+	c #212121",
"%+	c #141414",
"&+	c #0C0C0C",
"*+	c #797979",
"=+	c #B0B0B0",
"-+	c #848484",
";+	c #7E7E7E",
">+	c #636363",
",+	c #959595",
"'+	c #3C3C3C",
")+	c #6B6B6B",
"!+	c #6A6A6A",
"~+	c #7B7B7B",
"{+	c #000000",
"]+	c #010101",
"^+	c #030303",
"/+	c #0D0D0D",
"(+	c #858585",
"_+	c #0E0E0E",
":+	c #EEEEEE",
"<+	c #E6E6E6",
"[+	c #181818",
"}+	c #EDEDED",
"|+	c #363636",
"1+	c #101010",
"2+	c #EAEAEA",
"3+	c #E7E7E7",
"4+	c #242424",
"5+	c #343434",
"6+	c #0F0F0F",
"7+	c #191919",
"8+	c #121212",
"9+	c #111111",
"0+	c #131313",
"a+	c #151515",
"                                                                                                                            . + @ # @ @ @ @ + + + + + + $ $ $ + + @ + + @ # # # @ + + + @ @ % $               ",
"                                                                                                                            & $ & & & & % % % % & * * * = = = * * & * * & & & & * & * = = = - * %             ",
"                                                                                                                          + % ; * & & & & & & % & * * * * * * * * * * * & & % & & $ & * * = > * - +           ",
"                                                                                                                          & $ , + % $ $ $ $ + + % & & % % % $ + $ $ + + + + + % & $ + + $ % ' * ) !           ",
"                                                                                                                        & & $ ~ = = * * * * * = * * * & = = - = = = - { - = = - - * & & & & ] { ^ /           ",
"                                                                                                                        ! * % & + + + @ @ + + + + + + + % % % $ + + + $ + + + + $ + + @ @ + - - ( _ =         ",
"                                                                                                                        : ! ! ! - - - - { - - - = = - { ! ! ! ! - - - { { - - - { { { - - - ) / ( : :         ",
"                                                                                                                        ( ) < [ ^ < ( [ [ < ^ ^ < < < ^ < < < < / _ / ^ / / / / / / / / / / ( } ] _ (         ",
"                                                                                                                        | / 1 2 , , 3 2 2 , 4 5 5 5 5 4 5 5 5 5 5 5 1 1 1 5 5 5 1 1 1 5 5 4 4 6 3 < ]         ",
"                                                                                            7 % = * *                   8 5 ' 9 0 0 a a 0 a ' ' 6 6 6 ' 6 6 6 ' ' ' b b b c c c c b b b b b 6 d a ~ ]         ",
"                                                                                      = % % * * * * * * * = * * * & * | e 0 d f g g g g g g h i h h h h i i i i i i d d d d d d i i i d d d j k h ' 1         ",
"                                                                                  } = = * * & & & & & & & & & & & * * } f d l m n n n n n n o o o o o o n n n n n n o l o o l l o o o p q q r p s h 3         ",
"                                                                                { - - = = = * * * * = * * * * * * * * } a ' t 9 6 ' ' ' b c c c c 8 c c 8 8 b ' d k a b b c c b b b ' 9 9 9 i d t 0 c         ",
"                                                                          - ; - = & & - * = = * * & = - - * = * * * = > { - = * & & % % % $ & % % + + + @ @ + + ! ~ & + + + + + + $ $ % $ % % % % $ ]         ",
"                                                                      u v w 7 @ % & * - { { = = - = ! = = & * = - = ! > & & & & % % % $ $ $ % $ $ + @ # @ # # # & ^ % @ @ # # # + = ! ! { ! : - $ + )         ",
"                                                                      x u y z v # A B w # $ & = - = - { { { = ! ; i C } * & * * $ $ % % $ + + + + + + + + + @ @ = [ & @ # 7 # # + % & % % % & & $ $ * -       ",
"                                                                      z D y z B ^ > | [ ^ # y E F A # + % * 1 G H I J ~ & & * * % $ & % % $ + + + + + + + + + @ - ] * @ @ # # # @ @ @ $ $ + @ @ + $ + :       ",
"                                                                      z D y z w { ) _ < ^ { % . y y y y z # K L M L N < & % % % $ $ % % % $ + + + + + + + + + @ { | * + # # # # @ @ @ @ + $ $ + + + @ _       ",
"                                                                        _ 7 x x F F w @ B # * 7 y y D y D # O P Q R S : & % $ $ $ $ % % % $ + + + + + + + + + + ; 1 - + # # # # @ # @ # + + + + @ @ + {       ",
"          ^ | c e g                                                     T U V r 6 { . y W X Y F B z u y y # Z ` R `  .{ & * & & & & % % % $ + + + + + + + + @ + / 2 { + @ @ @ # @ # @ @ @ + + + + + $ & !     ",
"          & ] 4 4 5 8 6 t                                               ..H +...@.#.$.%.&.q b > & + # B w + *.` P =.-.= & * * * * & % % % $ + + + + + + + + @ + < c ! + + + @ @ @ # @ + + + + + + + $ $ !     ",
"        x - ;.%.>.,.-.'.b 5 3 6 9                                       #.H +.N *.).H ).H @.!.~.{.].^.j ' } ).` ` /.s * % & * * & & % % % $ + + + + + + + + @ % > ' ; + + + + + @ # @ @ @ + + + $ % % $ -     ",
"        x [ (._.*.:.!.<.[.}.| ; ( } 2 '.|.                              O :.1..._.!.#._.*.2.H :.3.3.N Z 4.5.6.` P 2.0 = & & & & & & & $ $ + + + + + + + + + + & ~ 0 ) $ + + + + @ # @ # # @ @ + $ % % % *     ",
"        7 c 7.<.8.3.H H 3.!.j B . $ ! > 3 2 i ,.%.                        $.+.+.@.+.3.O !.1.H :.:.:.3.3.3.+.9.0.a.<.} = * & & & & & & % % $ $ $ $ $ $ $ $ % % = 5 e : + $ + + + + @ @ @ @ @ @ + + + $ % *     ",
"          5 q b.:.H @.+.c.d.e.  W   y E + = ! ; _ 8 q f.H                   ~.O :.N :...@.@.H 3.:.3.3.3.3.g.h.J M e._ * - : _ _ / / / _ _ _ _ _ _ _ / $ % & * ! , h _ + + + + + + @ @ @ @ @ @ @ @ + $ + %     ",
"          >.i.:.H H j.k.l.c.+.m.n.          F @ { = , _.l.k.o.@.                    p.Z O 8.!.).N :.3.H l.q.r.g.l.s.* % ( t.u.v.G -.^.m m m q m q m C # @ & { : 2 j / + + + + + @ @ @ @ @ @ @ @ @ @ $ + % =   ",
"        3.:.@.H @.2.d.J g.l.2.w.d s 2 (       x.n.. ^.Z H @.c.o.d.d.l.l.c.                      $.f.N /.y.g.g.z.4.4 * * 2 }.A.B.G ^.p n s p q p n f s.A B % ! / 8 j ^ $ $ + + + @ @ @ @ @ @ @ @ @ @ + + % =   ",
"      H @.@.H ..k.C.r...D.<.b.s 8 j p E.j         _ A.%.~.$.O #.H +.F.d.C.k.                        /.J G.8.9.P H., [ ] I.J.K.,.L.L.u.v.^.}.M.N.O.u.B.= . * ) < b k > % + @ @ @ @ @ @ @ @ @ @ + + + + + % -   ",
"  !.@.@.@...j.d.C.c.f.K.                                    P.S f._.$.).C.r.                      H.2.        +.M.g d d ].:.#.#.!.!.Z f.O $._._.$.8.f.c | ] / [ 6 q 5 & + @ @ @ + + + @ @ @ @ + + + + + $ {   ",
"K :.:.3.:...o.r.@._.                                                Q._.J 1.                      *.          c.e.R.}.}.U 2.j.j.j.j.c.6.S.T.U.V.W.R 1.r i | ^ > 6 m 3 * $ @ @ @ + + + @ @ + + $ $ + + + + - # ",
").o.N 8.8.!.+.).            2.X.Y.J                                               - 5 ~ * & $ .   K.          d.[.R.u.u.Z.{.`.(.%.i.U S N 3.:.#.*.f.[. +6 [ ( ~ 0 s.2 * % + + @ + $ + @ @ @ + $ $ + + + + & * ",
"d.I 3.p.f.4.P.              .+` ++U.                        $ %                   I.O !.{.O.t > ( , /       r.g.f.j | [ > ~ ~ ~ | | | | } } | ~ | } ~ < _ _ [ } 9 s.8 = & % $ $ + $ $ $ $ $ $ & % % % $ $ @ = ",
"  J ~.p.4.<.                Q @+#+$+      V V     ; + { _ * ! { = .             } :.%+&+g.*.m.{.*+J.K >.&.l   9 , } ( _ / : : ) ) ; ! ! ! ! ! ! { { { ! ; / ] 5 =+s.' * % % % $ $ $ % % % % % $ $ % % & & + ! ",
"  ..w.T P.                  4.@+Y.T p -+8 ;.|.6 9 t I.p ' 1 _ ( { ! -           ,.I @+` Z ;+&.V -+>+g.I .+q.r.{.1 > < _ / / / / _ _ _ : : ) ; ; ; ! ! ; : ( ~ , e t.a - & % % % & & & & & * * * = = = - - = - ",
"                        & * 9 I >+5 }.H.;.> 0 ;+,.7.#.$.>.;.h e } [ _ ;       - ]._...@.>.,+ +e.I.`.G.>+p.@.'+G 0 ( / / _ : : ) _ ) ) ) ) ; ; ! ! ; ) _ < > } 3 i r s d e i g f j '.'.'.'.'.'.s l o o n s.t.1 ",
"    W.8.        ; { _ : ) = =+6.H.) a -.f q s A.l.Z J.:.F.U i.D.3 ^ ) ) %     A = ^ | e 6 =+o G -+)+K e.S Z !+d a ^ / / ( [ > ( ~ | ~ ] ] : ; ; ) ) / ( [ ] | 4 h ^.&.D.4.:.H @.@.@...H :.N ).Z 4.Q.G.H.4.~.  ",
"        q.C.[.@ + _ / { E @ G 9.@.b F @  +`.-+5.5.).N ~+N.Q.>.4 ) : / / _ -   $ { ( { $ 7 7 A A = 4 a o G *+s g 4 / _ / ~ | ~ } ] ] 5 < ~ } ~ | } } [ ( [ > ~ 1 d R.w.8.h.{+{+{+{+{+{+{+{+]+^+/+C.<.<.~.<.H.  ",
"              x.z % / * D F 3 ,.v.{ x . ~ 3 n d p )+D.!+b.R.| _ : : : _ _ : ;      +s.k e 0 5 > / = $ w w + > s., / / _ } ~ > } ~ > [ < / / / ( ( [ [ ( [ > ~ 1 i (+D.!.Q {+{+{+{+{+{+{+{+{+{+_+3.<.~.H.~.S   ",
"              :+<+F = : . E x x u u B { / _ _ < ] 2 ' ;.h ^ / _ : : : _ ^ [ ] ,                         ' , 2 l } ^ / / ( [ ( < < ( ( / _ _ ^ ( ( [ [ [ > > ~ 1 j ~.N 3.[+{+{+{+{+{+{+{+{+{+{+S.8.~.~.G.G.`.  ",
"              X }+n.. ) ^ ^ { - { / _ _ : _ _ : _ _ / < / _ _ _ < ] 4 c =+e d i b                             4 ] ( ( < ^ ^ < ^ ^ < < < < < ( [ [ > ~ ] ] | | 1 f 2.|+F.1+{+{+]+]+{+{+]+{+{+{+$+Z 8.p.~.G.7.  ",
"              W X W x A : _ _ _ : / / _ _ _ _ _ ^ < [ ~ 1 2 0 i j g f f j j j '.h 2                             9 6 c 8 8 2 , 3 , , , 4 4 4 5 1 5 , 3 3 8 c c b l <.h.h.Y.Q z.z.R R z.M ` $+W.` y.W.Q r.#.    ",
"                x X 2+u + _ _ : : _ _ / ( > | 5 c a =+i g f f j f k k k o o q s. +d                             *+U K (.`.m.>.>.w.e.~+ .V -+,.,.,.&.&.&.(+(+&.M.7.{.                                          ",
"                  :+:+3+w & _ ^ ] 1 2 b 9 t i h f f f f j '.k o n q s.t.I.v.B.A.                                O L T.W.4+W.R 4+P ` Q R z.0.9.6.y.5+q.6.9.q./.q.1.                                            ",
"                    B }+y 7 , t h h g f g f f f j k o p s.s.t.t. +G ;.                                            .+U.@+@+@+[+1+6+_+1+@+@+7+S.%+8+9+8+0+@+a+7+@.U                                             ",
"                    c w }+z 2 f f j j '.s o p s.C I.I.-.u.B.N.e.                                                                                                                                              ",
"                        W 3+1 l n p q m r ,+u.R.}.O.&.K.                                                                                                                                                      ",
"                          <+1 s. +R.}.N.N.                                                                                                                                                                    ",
"                            c |.                                                                                                                                                                              "};
