/* XPM */
static char * open_xpm[] = {
"22 16 6 1",
" 	c None",
".	c #808080",
"+	c #FFFFFF",
"@	c #C0C0C0",
"#	c #FFFF00",
"$	c #000000",
"                      ",
"     .....            ",
"    .+++++.           ",
"   .+@#@#@+......     ",
"   .+#@#@#@+++++.$    ",
"   .+@#@#@#@#@#@.$    ",
"  .............#.$    ",
"  .++++++++++.$@.$    ",
"  .+@#@#@#@#@#$..$    ",
"   .+@#@#@#@#@.$.$    ",
"   .+#@#@#@#@#@$.$    ",
"    .+#@#@#@#@#.$$    ",
"    ............$$    ",
"     $$$$$$$$$$$$$    ",
"                      ",
"                      "};
