/* XPM */
static char * snes3_96_xpm[] = {
"58 48 206 2",
"  	c None",
". 	c #7D7D7D",
"+ 	c #4C4C4C",
"@ 	c #4A4A4A",
"# 	c #484848",
"$ 	c #4E4E4E",
"% 	c #515151",
"& 	c #3C3C3C",
"* 	c #3F3F3F",
"= 	c #2F2F2F",
"- 	c #3A3A3A",
"; 	c #616161",
"> 	c #575757",
", 	c #929292",
"' 	c #898989",
") 	c #848484",
"! 	c #8D8D8D",
"~ 	c #757575",
"{ 	c #6B6B6B",
"] 	c #555555",
"^ 	c #333333",
"/ 	c #2A2A2A",
"( 	c #343434",
"_ 	c #363636",
": 	c #3E3E3E",
"< 	c #5F5F5F",
"[ 	c #414141",
"} 	c #2C2C2C",
"| 	c #323232",
"1 	c #232323",
"2 	c #727272",
"3 	c #737373",
"4 	c #7A7A7A",
"5 	c #A8A8A8",
"6 	c #646464",
"7 	c #595959",
"8 	c #585858",
"9 	c #0F0F0F",
"0 	c #1C1C1C",
"a 	c #353535",
"b 	c #5C5C5C",
"c 	c #151515",
"d 	c #111111",
"e 	c #131313",
"f 	c #767676",
"g 	c #9B9B9B",
"h 	c #9A9A9A",
"i 	c #A1A1A1",
"j 	c #9D9D9D",
"k 	c #A3A3A3",
"l 	c #8C8C8C",
"m 	c #444444",
"n 	c #1B1B1B",
"o 	c #606060",
"p 	c #717171",
"q 	c #949494",
"r 	c #2E2E2E",
"s 	c #101010",
"t 	c #141414",
"u 	c #6A6A6A",
"v 	c #9E9E9E",
"w 	c #818181",
"x 	c #5A5A5A",
"y 	c #5B5B5B",
"z 	c #0A0A0A",
"A 	c #191919",
"B 	c #666666",
"C 	c #8B8B8B",
"D 	c #383838",
"E 	c #121212",
"F 	c #5D5D5D",
"G 	c #656565",
"H 	c #979797",
"I 	c #9C9C9C",
"J 	c #9F9F9F",
"K 	c #565656",
"L 	c #535353",
"M 	c #393939",
"N 	c #373737",
"O 	c #505050",
"P 	c #0E0E0E",
"Q 	c #888888",
"R 	c #969696",
"S 	c #999999",
"T 	c #A6A6A6",
"U 	c #8F8F8F",
"V 	c #6F6F6F",
"W 	c #313131",
"X 	c #2B2B2B",
"Y 	c #161616",
"Z 	c #1A1A1A",
"` 	c #181818",
" .	c #838383",
"..	c #A5A5A5",
"+.	c #ABABAB",
"@.	c #AFAFAF",
"#.	c #BDBDBD",
"$.	c #BABABA",
"%.	c #B7B7B7",
"&.	c #525252",
"*.	c #4F4F4F",
"=.	c #5E5E5E",
"-.	c #696969",
";.	c #6E6E6E",
">.	c #797979",
",.	c #7E7E7E",
"'.	c #8A8A8A",
").	c #8E8E8E",
"!.	c #868686",
"~.	c #C4C4C4",
"{.	c #C1C1C1",
"].	c #C2C2C2",
"^.	c #CFCFCF",
"/.	c #D1D1D1",
"(.	c #C6C6C6",
"_.	c #C7C7C7",
":.	c #AEAEAE",
"<.	c #B4B4B4",
"[.	c #B2B2B2",
"}.	c #ADADAD",
"|.	c #B0B0B0",
"1.	c #CDCDCD",
"2.	c #D0D0D0",
"3.	c #D2D2D2",
"4.	c #D3D3D3",
"5.	c #CACACA",
"6.	c #C8C8C8",
"7.	c #D5D5D5",
"8.	c #CCCCCC",
"9.	c #B9B9B9",
"0.	c #BCBCBC",
"a.	c #BFBFBF",
"b.	c #C0C0C0",
"c.	c #C9C9C9",
"d.	c #CBCBCB",
"e.	c #D9D9D9",
"f.	c #D6D6D6",
"g.	c #D7D7D7",
"h.	c #D8D8D8",
"i.	c #DADADA",
"j.	c #D4D4D4",
"k.	c #CECECE",
"l.	c #B5B5B5",
"m.	c #A2A2A2",
"n.	c #ACACAC",
"o.	c #B1B1B1",
"p.	c #A9A9A9",
"q.	c #A7A7A7",
"r.	c #A0A0A0",
"s.	c #B6B6B6",
"t.	c #A4A4A4",
"u.	c #B8B8B8",
"v.	c #494949",
"w.	c #545454",
"x.	c #424242",
"y.	c #909090",
"z.	c #BEBEBE",
"A.	c #3B3B3B",
"B.	c #B3B3B3",
"C.	c #E2E2E2",
"D.	c #686868",
"E.	c #6D6D6D",
"F.	c #707070",
"G.	c #DBDBDB",
"H.	c #878787",
"I.	c #DCDCDC",
"J.	c #BBBBBB",
"K.	c #E3E3E3",
"L.	c #E5E5E5",
"M.	c #C5C5C5",
"N.	c #E0E0E0",
"O.	c #4B4B4B",
"P.	c #919191",
"Q.	c #959595",
"R.	c #939393",
"S.	c #C3C3C3",
"T.	c #2D2D2D",
"U.	c #808080",
"V.	c #434343",
"W.	c #7C7C7C",
"X.	c #6C6C6C",
"Y.	c #626262",
"Z.	c #464646",
"`.	c #989898",
" +	c #474747",
".+	c #252525",
"++	c #3D3D3D",
"@+	c #404040",
"#+	c #AAAAAA",
"$+	c #828282",
"%+	c #777777",
"&+	c #292929",
"*+	c #272727",
"=+	c #7F7F7F",
"-+	c #4D4D4D",
";+	c #676767",
">+	c #454545",
",+	c #1D1D1D",
"'+	c #7B7B7B",
")+	c #DFDFDF",
"!+	c #DDDDDD",
"~+	c #E6E6E6",
"{+	c #787878",
"]+	c #858585",
"^+	c #747474",
"/+	c #282828",
"                                                                                                                    ",
"                                                                                                                    ",
"                                                                                                                    ",
"                                                                                                                    ",
"                                                      . + @ # $ % % & * = - % ; > , ' ) !                           ",
"                                                ~ { { ] ^ / ( _ : < [ ^ = } = | 1 2 3 2 4                           ",
"                                              5 6 7 8 [ 9 0 a ^ # b ; [ = c d e e b b ; f g h h i                   ",
"                                        g j k l 7 8 ] m 9 n _ : o p q * r s e c t b b ; u j i g i                   ",
"                                        v g g w x y > [ z A @ B y C p a D E E t E x x F G H j I i                   ",
"                                      I J h H . 8 K L * t M N o 6 ) O ^ = d P 9 9 > > 7 ; Q R S v v                 ",
"                                      T J H U V 7 8 K : e W n ^ N X t Y Y Z ` 0 c 8 7 y o  .S ..+.@.                ",
"                                      #.$.$.%.C O &.*.=.-.-.;.p 2 ~ >.. ,.w ) '.'.).!.l , #.~.{.].^.                ",
"                                      /.(.(._.(.].:.<.[.$.}.<.[.|.1.2.3./.2.3.3.2.3.4.2.5.6.^.5.6.7.                ",
"                                      4.5.1.1.8.1.9.0.a.b.].].c.d.7.e.f.g.h.i.e.7.f.g.i.j.d.k.1.8.4.                ",
"                                      l.<.|.}.m.n.:.}.@.|.o.[.@.p.p.T T T T q...r.m.m.r.i U i r.m.l.                ",
"                                      9.$.$.s.t.o.s.%.u.u.%.s.[.b.8.8.k.{.|.u.u.%.s.s.l.|.g ^.1.k.g.                ",
"                                      g.g.h.[.v.7 7 K 7 x w.O x.y.{.z.z.q.# + $ b x K m * A.B./.^.2.C.              ",
"                                    8.2.3.k.! # ; 6 D.E.;.V ~ B 6 l C Q ~ ; F.;.;.V E.F.~ F.r.^./.k.f.              ",
"                                    G.3.j.3.a.<.k.2./.4.j.f.g.#. .C C H.H.o.g.7.7.4.3.3.j./.3././.2.7.              ",
"                                    I.7.7.4.2.8.j.3.7.j.4.7.f.u.'.'.'.' H.:.g.j.j.j.4.7.7.j.4.4.4.j.e.              ",
"                                    e.g.h.j.k.j.f.g.g.f.j.f.h.J.S g J ..t.s.h.e.h.e.e.f.h.7.1.7.j.7.g.K.            ",
"                                    G.h.e.e.h.h.i.e.e.h.h.h.e.3.7.7.j.i.e.2.G.i.i.i.e.g.e.g.2.f.7.7.7.L.            ",
"                                    _.{.#.$.#.1.8.5.5.5.5.c.8.~.].a.#.#.J.l.8.5._._.~.].~.M.0.z.z.a.z.N.            ",
"                                  I p % O.6 P.<.[.[.[.o.[.[.<.5 J J r.v g S <.o.|.@.|.o.<.s.n.n.:.|.[.g.            ",
"                                  w : F.3 O.8 t.v j j j j v m.v m.m.k i j ).Q.U y.U y.P.R.I k n.@.[.[.S.            ",
"                                  T.U.R.U ,.V.l W.4 E.X.u { 4 H I J r.t.v R.. o < o F b b ;.v m.t.....+.            ",
"                                  ^ U.W.Y.X.&.        O.* Z.O.C y.q R g `.l &.x.m #  +m m x.R q.p.5 p.5 n.          ",
"                                        h./.2.l.k I     .+r ++' S j v m.J y.% M M & x.@+x.++R.5 +.n.n.+.o.          ",
"              6.d.1.1.5.(.n.J #+j @.j u.2._.H ) $+!.O m 7 w.0 %+R J k m.j R y &+&+*+= X r | R r.k ..q.n.s.          ",
"          f._.(.].u.0.(.(.r.r...+.m.n.s.5.S Q H.i U.| W.) T . W =+=+ . . .=+X.* x./ A x.-+% w Q ).U R T l.          ",
"        M._.S.0.k ;+j {.M.S.].M.(.(.d.1.9.!.) |.5 >+G w . ' ..0 [ & A.( -         T.,+a                             ",
"        ].S.b.%.'+.+D.s.0.M._.d.i.I.G.j.#.S.k.)+f.< |.j.!+~+L.    g.  j./.        *+                                ",
"        b.].a.G : / M $ z.M.6.k.  e.7.^.k.2.2.2.3.J.8.3./.8.1.5.:...T s.8.o.    =.X                                 ",
"        0.#.#.o ( W a % #.8.5.b.0.#.#.#.{.B.<.J.%.9.<.l.z.].9.v 4 ~ ~ {+!.|.5.,.v.                                  ",
"        B.J.J.o.4 / 7 <.b.0.9.$.u.9.$.b.u.j S J g I j k #.[.U.f {+]+q 4 {+%+h 5 I                                   ",
"          $.9.z.+.{ P.u.9.%.s.@...t.n.%.$.[.B.[.B.<.l.u.a.U f %+y., , Q f f W.B.                                    ",
"          B.%.9.u.%.%.l.<.l.}.@.] A.'.<.u.0.#.$.s.<.u.u.$.^+^+q @.! U =+W.>.f r.                                    ",
"            [.s.%.<.l.B.<.o.I H.& *+;+'.[.9.$.$.9.s.s.l.r.;.Q i t.j 3 W.Z. +U.l                                     ",
"                <.B.i n.[.|.%+/ / X } &+n.u.|.-.J 9.Y.U m.;.=+! R.l , m.* - !.).                                    ",
"                      ).|.@.q =.| / $ V B.+.w.% 5 %+Z.m.B.'+%+F.4 ; &.q ! V %+I                                     ",
"                      H |.@.:.n.O /  .o.%.B.H n.l.v n.B.$.).2 F.'+% /+$+ .~ >.#+                                    ",
"                        n.|.|.|.R ,.p.%.%.l.o.B.l.l.<.s.u.5 . ~ %+{ < f %+~ q                                       ",
"                        T n.@.|.@.|.[.l.%.l.s.l.l.l.%.%.%.u.J W.f 2 F.2 %+`.                                        ",
"                          5 :.|.|.o.|.[.|.                  a.@.j , ).h t.                                          ",
"                              J.@.:.@.|.                        5 +.<.                                              ",
"                                                                                                                    ",
"                                                                                                                    ",
"                                                                                                                    "};
