/* XPM */
static char * snes_96_xpm[] = {
"57 48 205 2",
"  	c None",
". 	c #CDCDCD",
"+ 	c #C9C9C9",
"@ 	c #BABABA",
"# 	c #B4B4B4",
"$ 	c #AAAAAA",
"% 	c #959595",
"& 	c #8A8A8A",
"* 	c #919191",
"= 	c #979797",
"- 	c #A1A1A1",
"; 	c #A8A8A8",
"> 	c #AEAEAE",
", 	c #ACACAC",
"' 	c #BEBEBE",
") 	c #909090",
"! 	c #848484",
"~ 	c #787878",
"{ 	c #676767",
"] 	c #595959",
"^ 	c #4A4A4A",
"/ 	c #3B3B3B",
"( 	c #343434",
"_ 	c #303030",
": 	c #363636",
"< 	c #313131",
"[ 	c #2F2F2F",
"} 	c #393939",
"| 	c #6A6A6A",
"1 	c #6C6C6C",
"2 	c #A7A7A7",
"3 	c #A0A0A0",
"4 	c #7D7D7D",
"5 	c #2E2E2E",
"6 	c #292929",
"7 	c #232323",
"8 	c #262626",
"9 	c #252525",
"0 	c #282828",
"a 	c #424242",
"b 	c #5A5A5A",
"c 	c #414141",
"d 	c #202020",
"e 	c #1F1F1F",
"f 	c #2C2C2C",
"g 	c #555555",
"h 	c #565656",
"i 	c #5D5D5D",
"j 	c #8D8D8D",
"k 	c #707070",
"l 	c #696969",
"m 	c #5E5E5E",
"n 	c #5C5C5C",
"o 	c #454545",
"p 	c #404040",
"q 	c #4E4E4E",
"r 	c #525252",
"s 	c #4C4C4C",
"t 	c #6B6B6B",
"u 	c #1D1D1D",
"v 	c #212121",
"w 	c #222222",
"x 	c #515151",
"y 	c #7C7C7C",
"z 	c #505050",
"A 	c #1C1C1C",
"B 	c #353535",
"C 	c #494949",
"D 	c #666666",
"E 	c #646464",
"F 	c #333333",
"G 	c #2A2A2A",
"H 	c #4F4F4F",
"I 	c #545454",
"J 	c #5F5F5F",
"K 	c #757575",
"L 	c #4D4D4D",
"M 	c #484848",
"N 	c #444444",
"O 	c #464646",
"P 	c #3E3E3E",
"Q 	c #191919",
"R 	c #1A1A1A",
"S 	c #7E7E7E",
"T 	c #535353",
"U 	c #4B4B4B",
"V 	c #3A3A3A",
"W 	c #3C3C3C",
"X 	c #6F6F6F",
"Y 	c #181818",
"Z 	c #242424",
"` 	c #686868",
" .	c #DDDDDD",
"..	c #C8C8C8",
"+.	c #D3D3D3",
"@.	c #D6D6D6",
"#.	c #D0D0D0",
"$.	c #828282",
"%.	c #373737",
"&.	c #383838",
"*.	c #1B1B1B",
"=.	c #323232",
"-.	c #474747",
";.	c #ADADAD",
">.	c #C1C1C1",
",.	c #E8E8E8",
"'.	c #DCDCDC",
").	c #C7C7C7",
"!.	c #CCCCCC",
"~.	c #CBCBCB",
"{.	c #C6C6C6",
"].	c #2B2B2B",
"^.	c #3D3D3D",
"/.	c #434343",
"(.	c #9F9F9F",
"_.	c #BCBCBC",
":.	c #C0C0C0",
"<.	c #EAEAEA",
"[.	c #DBDBDB",
"}.	c #C4C4C4",
"|.	c #B9B9B9",
"1.	c #C2C2C2",
"2.	c #B3B3B3",
"3.	c #7B7B7B",
"4.	c #575757",
"5.	c #949494",
"6.	c #BDBDBD",
"7.	c #ECECEC",
"8.	c #E2E2E2",
"9.	c #C3C3C3",
"0.	c #B2B2B2",
"a.	c #B8B8B8",
"b.	c #6E6E6E",
"c.	c #797979",
"d.	c #838383",
"e.	c #8E8E8E",
"f.	c #969696",
"g.	c #9B9B9B",
"h.	c #A3A3A3",
"i.	c #B5B5B5",
"j.	c #BFBFBF",
"k.	c #B7B7B7",
"l.	c #B0B0B0",
"m.	c #E5E5E5",
"n.	c #E3E3E3",
"o.	c #B1B1B1",
"p.	c #868686",
"q.	c #777777",
"r.	c #9D9D9D",
"s.	c #B6B6B6",
"t.	c #AFAFAF",
"u.	c #ABABAB",
"v.	c #A2A2A2",
"w.	c #999999",
"x.	c #939393",
"y.	c #E4E4E4",
"z.	c #BBBBBB",
"A.	c #A6A6A6",
"B.	c #9E9E9E",
"C.	c #8F8F8F",
"D.	c #A4A4A4",
"E.	c #E6E6E6",
"F.	c #C5C5C5",
"G.	c #A9A9A9",
"H.	c #9A9A9A",
"I.	c #9C9C9C",
"J.	c #989898",
"K.	c #898989",
"L.	c #CFCFCF",
"M.	c #CECECE",
"N.	c #272727",
"O.	c #DEDEDE",
"P.	c #D1D1D1",
"Q.	c #CACACA",
"R.	c #929292",
"S.	c #D2D2D2",
"T.	c #DADADA",
"U.	c #D4D4D4",
"V.	c #818181",
"W.	c #8C8C8C",
"X.	c #878787",
"Y.	c #8B8B8B",
"Z.	c #7F7F7F",
"`.	c #7A7A7A",
" +	c #747474",
".+	c #888888",
"++	c #717171",
"@+	c #616161",
"#+	c #808080",
"$+	c #727272",
"%+	c #656565",
"&+	c #5B5B5B",
"*+	c #2D2D2D",
"=+	c #737373",
"-+	c #858585",
";+	c #606060",
">+	c #6D6D6D",
",+	c #626262",
"'+	c #151515",
")+	c #141414",
"!+	c #111111",
"~+	c #767676",
"{+	c #585858",
"]+	c #1E1E1E",
"^+	c #A5A5A5",
"                                                                                                                  ",
"                                                                                                                  ",
"                                                                  . + @ # $ % & * = - ; > ,                       ",
"                                                      ' - ) ! ~ { ] ^ / ( _ : < [ } | 1 1 |                       ",
"                                              > 2 3 & 4 5 6 7 8 9 0 : a b c d e d f g h b i                       ",
"                                              j k l m n 5 f _ o p q r s n t u v w f x s r ]                       ",
"                                              y ] g z h w A B C s D E : F F A e e G H z I J                       ",
"                                              K x L M r e v N O s M h H ^ P Q R R 9 s ^ L {                       ",
"                                              S T z U z 8 w w F V W X I ] F Y Y Q Z C M q ` @                     ",
"                                     ...+.@.#.$.U C o L W %.u v v &.P d u *.5 =.: W M N -.i ;.>.                  ",
"                                  ,.'.).!.~.{.! q q -.U 0 7 8 ].< } ^./.-.M L U U L o V P L (._.:.                ",
"                                  <.[.}.|.1.2.3.s ^ a s -.C U s s U U L H z I 4.n l k K ! 5.# >.6.1.              ",
"                                  7.8.9.0.a.(.D o P B o ^ x b D b.c.d.e.f.g.h.; , 0.0.2.i.@ j.k.l.6.              ",
"                                  m.n.:.o.|.' p.q.! ) r.2 > l.s.# # i.k.i.# o.t.t.l.;.u.v.w.) x.r.s...            ",
"                                    y.. @ o.~.9.' j._.@ z.@ _.z.s.k.s.s.0.;.A.B.5.C.C.x.= D.l.a.' @ }.~.          ",
"                                    E.'.F.G.s.D.v.h.B.H.I.w.H.J.% * e.j K.K.e.f.(.2 t.k._.' >.:.>.j.z.).          ",
"                                      n.L.:.t.2 - (.H.w.w.r.- A.$ u.o.s.|.@ ' 6.6.z._.' ' j.1.1.1.1.@ 9..         ",
"                                      n.@.#.}.).>.j.t.D ^ 4 |.1.1.>.1.:.' ' :.j.>.' 6.' :.1.1.>.>.>.' @ F.        ",
"                                      m.[.M.>.F.}.>.w.&.N.q D.6.9.>.:.j.j.j.j.:.9.>.' :.>.9.9.1.}.1.>.k.:.{.      ",
"                                        O.P.+ Q.)...>.R.{ e.' }.F.F.1.>.9.1.F.}.F.j.@ s.@ i.0.t.u.u.z.6.z.1.      ",
"                                        '.L.+ 1.{.}.}.s.| I K.j.:.>.:.' :.:.>.1.9.|.> , ;., ;.;.l.;.# ' s.z.:.    ",
"                                        O.S.!.>.+ + ).= 5 0 / - z.:.1.:.9.F.F.}.F.j.2.0.s.k.@ z.' 6.' j.z.# 6.    ",
"                                        T.U.+ 9.}.{.:.D.%.9 &.V.6.j.:.' :.{.1.:.9.).9.' ' ' ' 6.j.j.6.z.@ > @ 1.  ",
"                                            Q.>.:.{.F.:.4 ^.q B.j.:.1.1.>.1.9.{.F.F.9._.z._._.z.@ s.2.l.$ r.- t.  ",
"                                            Q.>.6.1.F.1.' $ ;.z.j.' ' 1.:.:._.6.6.6.|.> G.D.(.I.w.% * C.W.X.p.3   ",
"                                          P.).1.s.j.>.j.' 6._.k.k.i.o.u.A.v.g.H.= x.* j W.W.Y.j K.& Y.Y.& X.! -   ",
"                        ] a -.            S.}.j.t.2.0., 3 w.R.& d.Z.`. + +K `.d..+& p.S K ++1 Z.p..+p.! d.! V.x.  ",
"                      g i   @+/.          +.a.H.& d.! #+`.q.$+1 %+@+&+h q U -.{ q./.B ].w e A r q.3.y #+$.$.d.f.  ",
"                    g %.      ^             0..+q.X  +++X 1 %+s &.B f G N.G *+p J Y A ].&.O T =+Z.#+$.$.! -+j     ",
"                    ^.          }           A.`.1 { { E ;+b L [ f f f ].G 6 G [ r | b.++k b.1 >+1 { ,+,+X         ",
"                    c           n           $ K.#+S q.l b s N < 6 6 8 d v d v v : z z H C C o ^.p } -.            ",
"              ~.{.|.2 :.' _.@ _.G.s.' ' _.a.k.G.W.V.! * Y.x O P 7 A Y '+v Z d v 8 5 B                             ",
"          Q.>._.z._.@ @ @ l.> l.> $ t.i.# o.-+D ,+;+;+@+>+-+a Z e R Q Q )+!+F 6 /                                 ",
"        9.' 6.a.k.k.k.s.l.(.H.J.I.w.h.i.0.Y.E ,+D =+l D i 1 `.L c N.%.  7 u ~+                                    ",
"        z.z.k.$ ; , l.# 2., u.u., ;.> 0.3 ` ,+| ~+ +$+b ] {+$+            =.                                      ",
"      z.a.i.o.Z.M S t.# k.# i.# 0.o.t.> #+J 1 * y k { r {+4.E j           8 {+                                    ",
"      k.2., - {+5 ] H.> 2.l.l.;.G.; A.A.b.@+c.$.K.3.;+I N.O ] d.          G g                                     ",
"    @ i.2.= M B *+( a e.u.G.(.I.D.w.W.v.{ m b.q.#+>+4 T Y 5 r 4 D.        6 @+                                    ",
"    i.o.;.Z.*+*+< [ =.Z.A.e./.| x.^ -.r.` &+` ,+h ] K ~ O C r V.G.        B                                       ",
"    0.t.$ = t /.[ -.~ w.3 z z x.t -.X.I. +4.h x q d *+~ X r g &         =.                                        ",
"    2.u.u.; - &+F ,+I.3 B.W.5.g.x.x.H.I.X.{+I H ^ ]+0 ] z q J y r ;+g V ].                                        ",
"      $ G.G.- X.K W.(.B.B.g.J.= H.f.f.H.% X T g h C U L q T c.++_ Z 5 5                                           ",
"      > $ ; A.A.A.B.B.I.r.I.g.w.g.= = = % ) ` r x z H q T $+W.                                                    ",
"        , ; ^+D.D.g.H.= & Z.4 `.~ ~+=+k | b.! ~ @+4.4.@+`.K.                                                      ",
"        o.$ h.v.v.w.x.q.p _ F F =.F ( F F B z ~ -+! V.#+X.                                                        ",
"            (.g.R.y ,+c a H g | V.-+-+-+-+V.` 1 $+%+g                                                             ",
"                                                                                                                  ",
"                                                                                                                  "};
