/* XPM */
static char * snes2_96_xpm[] = {
"62 48 177 2",
"  	c None",
". 	c #A3A3A3",
"+ 	c #A2A2A2",
"@ 	c #BBBBBB",
"# 	c #D2D2D2",
"$ 	c #D3D3D3",
"% 	c #C0C0C0",
"& 	c #9F9F9F",
"* 	c #B7B7B7",
"= 	c #C7C7C7",
"- 	c #C5C5C5",
"; 	c #C2C2C2",
"> 	c #CBCBCB",
", 	c #BABABA",
"' 	c #949494",
") 	c #BEBEBE",
"! 	c #9D9D9D",
"~ 	c #989898",
"{ 	c #9C9C9C",
"] 	c #CACACA",
"^ 	c #B2B2B2",
"/ 	c #969696",
"( 	c #CECECE",
"_ 	c #939393",
": 	c #8E8E8E",
"< 	c #8D8D8D",
"[ 	c #919191",
"} 	c #A1A1A1",
"| 	c #C8C8C8",
"1 	c #C4C4C4",
"2 	c #B6B6B6",
"3 	c #CCCCCC",
"4 	c #979797",
"5 	c #959595",
"6 	c #8C8C8C",
"7 	c #878787",
"8 	c #9B9B9B",
"9 	c #B9B9B9",
"0 	c #CFCFCF",
"a 	c #A4A4A4",
"b 	c #999999",
"c 	c #888888",
"d 	c #838383",
"e 	c #9E9E9E",
"f 	c #C9C9C9",
"g 	c #B3B3B3",
"h 	c #AFAFAF",
"i 	c #8F8F8F",
"j 	c #898989",
"k 	c #ABABAB",
"l 	c #929292",
"m 	c #D4D4D4",
"n 	c #D7D7D7",
"o 	c #B5B5B5",
"p 	c #808080",
"q 	c #787878",
"r 	c #909090",
"s 	c #868686",
"t 	c #818181",
"u 	c #848484",
"v 	c #9A9A9A",
"w 	c #DEDEDE",
"x 	c #6A6A6A",
"y 	c #646464",
"z 	c #5C5C5C",
"A 	c #7E7E7E",
"B 	c #8B8B8B",
"C 	c #A0A0A0",
"D 	c #BCBCBC",
"E 	c #DCDCDC",
"F 	c #7B7B7B",
"G 	c #5F5F5F",
"H 	c #626262",
"I 	c #7C7C7C",
"J 	c #858585",
"K 	c #828282",
"L 	c #B4B4B4",
"M 	c #E8E8E8",
"N 	c #666666",
"O 	c #606060",
"P 	c #686868",
"Q 	c #7F7F7F",
"R 	c #7D7D7D",
"S 	c #757575",
"T 	c #707070",
"U 	c #6E6E6E",
"V 	c #E1E1E1",
"W 	c #5D5D5D",
"X 	c #575757",
"Y 	c #5E5E5E",
"Z 	c #727272",
"` 	c #7A7A7A",
" .	c #767676",
"..	c #797979",
"+.	c #747474",
"@.	c #A7A7A7",
"#.	c #DFDFDF",
"$.	c #535353",
"%.	c #4E4E4E",
"&.	c #545454",
"*.	c #E0E0E0",
"=.	c #A6A6A6",
"-.	c #515151",
";.	c #565656",
">.	c #656565",
",.	c #777777",
"'.	c #ADADAD",
").	c #D9D9D9",
"!.	c #B1B1B1",
"~.	c #4D4D4D",
"{.	c #636363",
"].	c #6C6C6C",
"^.	c #8A8A8A",
"/.	c #585858",
"(.	c #4F4F4F",
"_.	c #4B4B4B",
":.	c #444444",
"<.	c #525252",
"[.	c #AAAAAA",
"}.	c #DBDBDB",
"|.	c #717171",
"1.	c #696969",
"2.	c #E4E4E4",
"3.	c #D5D5D5",
"4.	c #D1D1D1",
"5.	c #AEAEAE",
"6.	c #737373",
"7.	c #CDCDCD",
"8.	c #C6C6C6",
"9.	c #A9A9A9",
"0.	c #6D6D6D",
"a.	c #B8B8B8",
"b.	c #DADADA",
"c.	c #C1C1C1",
"d.	c #C3C3C3",
"e.	c #6F6F6F",
"f.	c #555555",
"g.	c #6B6B6B",
"h.	c #D0D0D0",
"i.	c #A5A5A5",
"j.	c #5A5A5A",
"k.	c #ACACAC",
"l.	c #373737",
"m.	c #5B5B5B",
"n.	c #434343",
"o.	c #383838",
"p.	c #424242",
"q.	c #3C3C3C",
"r.	c #252525",
"s.	c #272727",
"t.	c #222222",
"u.	c #1D1D1D",
"v.	c #2D2D2D",
"w.	c #161616",
"x.	c #B0B0B0",
"y.	c #151515",
"z.	c #BDBDBD",
"A.	c #323232",
"B.	c #3D3D3D",
"C.	c #505050",
"D.	c #141414",
"E.	c #BFBFBF",
"F.	c #2E2E2E",
"G.	c #616161",
"H.	c #4C4C4C",
"I.	c #4A4A4A",
"J.	c #484848",
"K.	c #474747",
"L.	c #050505",
"M.	c #0E0E0E",
"N.	c #0A0A0A",
"O.	c #080808",
"P.	c #111111",
"Q.	c #070707",
"R.	c #010101",
"S.	c #030303",
"T.	c #0D0D0D",
"                                                                                                                            ",
"                                                                              . +                                           ",
"                                                                            @ # $ % &                                       ",
"                                                                          * = - ; > - , '                                   ",
"                                                                        ) > ! ~ { @ ] > = ^ /                               ",
"                                                                        ( . _ : < [ } , = | 1 2                             ",
"                                                                      3 . 4 ~ 5 : 6 6 7 8 , > 3 = 9 +                       ",
"                                                                    0 a b / 4 / ' [ < c d 6 e @ f > ; g                     ",
"                                                                  3 h ' ~ 4 5 _ i 6 7 7 d d d j . ) 1 = % k l               ",
"                                                              m n o { p q < ' < l r j s t p u 7 u j v @ - ; ) ^             ",
"                                                              w 9 e _ x y z A B < 6 u s u 7 j : j j B i C D 1 ; g b         ",
"                                                            E . b { b F G G G H I j s 7 B J 7 K u F I A A A { L g D g b     ",
"                                                          M | ! ~ b 4 ' K N z O y P Q j J R R I F S S q T U S F & g 2 l I   ",
"                                                        V ] } v ~ v ~ 5 [ i S z W W X Y Z `  ...q +.S S Q Y U +...@.5 j B   ",
"                                                      #.n + v 4 / l ' [ 6 r B d U W $.%.&.Y +.` ` ..F  .s R U  .v } c : d   ",
"                                                    #.*.=.v 8 S N u _ ' i : : j c K Y X -.;.&.>.+.,. .I F S T [ '.i : t R   ",
"                                                  ).*.!.v 8 J ~.-.Y 5 < B < : i 7 c p Z $.%.%.&.X {.+.K I T d @.6 s K A     ",
"                                                  V #.b v v j ].-.Y s  .t d c ^.J u I ` +.N /.(._.:.<.p q +.[.< 7 Q F       ",
"                                                n *.}.) + ~ C l R < q t K R S t A d ` ,...,.|.1.;.(.Y ` q { e s J  .U       ",
"                                              # *.2.3.4.1 5._ ' 8 Q  .q I Q  .+. . ...R  .+.+.T S  ...6.r e J 7 I A         ",
"                                            o 3.V V 7.@ C L 8.9.' ^.|.0.` A I R ,.0.q t R I S ` A q  .[ a t J t ..          ",
"                                            a.> b.$ D u 7 & @ ).c.' K ,.P |.+.6.T -.F A J .... .6.U Q 5.: u R 6.            ",
"                                            k d.) 8.7.5 ,.I ^.| 4.7.^ : F e.{.>.f.P q z H +.A Z 6...k [ 7 I Z               ",
"                                            / & 2 % c.- '.I g.+.v f 7.1 . d F ].Z K y W z H c +.|.! . Q u S                 ",
"                                              u < { 9 9 - 1 e ].s > ] # h.d.~ d R d 1.{.G A ..6.4 i.d s ,...                ",
"                                                J p p @.D a.% a.) 3 3 3 3 ( = 5.t R A F 6.I 6.d h 7 u  .S                   ",
"                                                  H j.>.d k.L 9 1 ] > 3 ] f 8.7.= + d +.` T  .5./ s s ..                    ",
"                                                {.G O Y z S v a.D 9 = ( ( ] | 7.] - , 5 +.q ! + j c R T                     ",
"                                                l.:.m.m.Y f.n./ =.o 9 D 8.] c.% = 1 d.* o 5.5.l : F A                       ",
"                                                  o.p._.z q.r.S r 8 [.'.'.a.2 r a.% * D 8.* 5 _ d q                         ",
"                                                  s.t.u.v.      t d 6 & h h L % % ) 9 1 ) { : c ..                          ",
"                                                  w.                7 u 4 @.^ 2 , L 8.= x._ : A                             ",
"                  ~.P <.{.                        y.                  K B 6 { !.x.L z.!.{ l R                               ",
"                A.      B.C.                      D.                      6 l { { ^ 5.& 8 R Z                               ",
"            5.j [ , d.7.2 H [.h.8.d.8.a.L                                     < c v { l R x                                 ",
"          8.) 9 E.x.h 9.& 5 8 @.a.k.! r 5 5 7       F.                          t B c  .N                                   ",
"        L * ^ !.2 Z F W Z <.W P a ..G.O G.x J k                                     A |.                                    ",
"      , 2 2 & A C * 9./ l B s : I H ,.H.I.W >.s         %.                                                                  ",
"      o !.+  .J.0.k.* 2 D 9 9 '.e.6._ W ~.{.H R Q                                                                           ",
"      * a.q :.K.H.R o [ 5 + K a 1.f.1.i < 1.G 1.i         L.                                                                ",
"      9 , [.,.J.,.h =.{.[ e.I i.0.G.1.8 a j O +.                                                                            ",
"        a.o } K & !.k b i.b [.x. .G |.'.i e.z K                                                                             ",
"        g ^ '.'.k =.[.C + } . '.~ U 0.g.H {. .                                                                              ",
"          9.C =.8                   ,.Z U U                                                                                 ",
"                                          M.              N.                                                                ",
"                                            N.O.        N.                                                                  ",
"                                              P.Q.R.S.T.                                                                    ",
"                                                                                                                            "};
