/* XPM */
static char * swc_xpm[] = {
"68 48 159 2",
"  	c None",
". 	c #989898",
"+ 	c #969696",
"@ 	c #979797",
"# 	c #939393",
"$ 	c #8E8E8E",
"% 	c #898989",
"& 	c #808080",
"* 	c #818181",
"= 	c #848484",
"- 	c #888888",
"; 	c #828282",
"> 	c #7D7D7D",
", 	c #777777",
"' 	c #6E6E6E",
") 	c #6D6D6D",
"! 	c #686868",
"~ 	c #676767",
"{ 	c #6F6F6F",
"] 	c #5C5C5C",
"^ 	c #656565",
"/ 	c #5D5D5D",
"( 	c #5B5B5B",
"_ 	c #565656",
": 	c #525252",
"< 	c #4A4A4A",
"[ 	c #474747",
"} 	c #3D3D3D",
"| 	c #434343",
"1 	c #3F3F3F",
"2 	c #444444",
"3 	c #464646",
"4 	c #4D4D4D",
"5 	c #505050",
"6 	c #545454",
"7 	c #5F5F5F",
"8 	c #4B4B4B",
"9 	c #454545",
"0 	c #4E4E4E",
"a 	c #555555",
"b 	c #3C3C3C",
"c 	c #313131",
"d 	c #353535",
"e 	c #363636",
"f 	c #323232",
"g 	c #3A3A3A",
"h 	c #343434",
"i 	c #383838",
"j 	c #424242",
"k 	c #5A5A5A",
"l 	c #606060",
"m 	c #757575",
"n 	c #494949",
"o 	c #515151",
"p 	c #535353",
"q 	c #4F4F4F",
"r 	c #373737",
"s 	c #2F2F2F",
"t 	c #2E2E2E",
"u 	c #303030",
"v 	c #3B3B3B",
"w 	c #414141",
"x 	c #636363",
"y 	c #797979",
"z 	c #878787",
"A 	c #929292",
"B 	c #9C9C9C",
"C 	c #393939",
"D 	c #333333",
"E 	c #404040",
"F 	c #2A2A2A",
"G 	c #585858",
"H 	c #616161",
"I 	c #767676",
"J 	c #8C8C8C",
"K 	c #A9A9A9",
"L 	c #2B2B2B",
"M 	c #272727",
"N 	c #232323",
"O 	c #484848",
"P 	c #787878",
"Q 	c #626262",
"R 	c #838383",
"S 	c #8A8A8A",
"T 	c #8D8D8D",
"U 	c #949494",
"V 	c #A3A3A3",
"W 	c #2C2C2C",
"X 	c #252525",
"Y 	c #4C4C4C",
"Z 	c #3E3E3E",
"` 	c #6B6B6B",
" .	c #7E7E7E",
"..	c #5E5E5E",
"+.	c #6A6A6A",
"@.	c #262626",
"#.	c #242424",
"$.	c #1F1F1F",
"%.	c #717171",
"&.	c #737373",
"*.	c #8B8B8B",
"=.	c #7F7F7F",
"-.	c #666666",
";.	c #7B7B7B",
">.	c #858585",
",.	c #9B9B9B",
"'.	c #A4A4A4",
").	c #2D2D2D",
"!.	c #1C1C1C",
"~.	c #282828",
"{.	c #212121",
"].	c #868686",
"^.	c #747474",
"/.	c #7A7A7A",
"(.	c #727272",
"_.	c #9D9D9D",
":.	c #A5A5A5",
"<.	c #ABABAB",
"[.	c #A1A1A1",
"}.	c #222222",
"|.	c #6C6C6C",
"1.	c #7C7C7C",
"2.	c #707070",
"3.	c #646464",
"4.	c #AAAAAA",
"5.	c #191919",
"6.	c #696969",
"7.	c #8F8F8F",
"8.	c #595959",
"9.	c #202020",
"0.	c #080808",
"a.	c #070707",
"b.	c #121212",
"c.	c #1D1D1D",
"d.	c #181818",
"e.	c #151515",
"f.	c #1E1E1E",
"g.	c #141414",
"h.	c #1B1B1B",
"i.	c #161616",
"j.	c #171717",
"k.	c #1A1A1A",
"l.	c #575757",
"m.	c #292929",
"n.	c #111111",
"o.	c #0C0C0C",
"p.	c #0E0E0E",
"q.	c #0A0A0A",
"r.	c #101010",
"s.	c #0F0F0F",
"t.	c #090909",
"u.	c #131313",
"v.	c #0B0B0B",
"w.	c #040404",
"x.	c #060606",
"y.	c #050505",
"z.	c #0D0D0D",
"A.	c #020202",
"B.	c #030303",
"                                                  . + + + @ # $ %                                                                       ",
"                                      & * = - - ; > , ' ) ! ! ~ ! { >                                                                   ",
"                          ] ^ / / ( ( _ : < [ } | 1 2 2 3 < 4 5 6 ( 7 ^ )                                                               ",
"                  ] 8 9 1 0 : _ _ a b c d e f g h e d i e b } j 2 0 k l ) m = @                                                         ",
"      6 ! ( n o p p p 6 q g r j n 8 0 0 2 g s t u f s f v w 0 p ( / 7 x ^ ) y z A B                                                     ",
"    c t 9 6 4 9 : 6 p : a p 8 C D w | 9 n 8 E u F d E 8 0 o o G H ! ~ l k / x I % J K                                                   ",
"  n L M N t 3 q 2 n p p p a p p n D f } 1 w | 9 3 O < < 5 ^ y P ~ Q R S H : 6 G 7 ~ > T U V                                             ",
"  W t F X N N d 4 Y | 4 6 p 6 6 o o j s s i C g b 1 Z 3 > - Q l q O 7 ` G 0 : '  ...7 { z % # B                                         ",
"  g +.| L @.#.$.#.g 0 n O 5 6 a 6 p p : 1 F W d d e C Z Q %.) &.%.+.' &.*.~ G m m R =.k -.;.=.>.$ ,.'.                                  ",
"  ).@ % ' D @.X N !.~.w q [ O 6 a 6 p p : q C {.s f D e i b 5 = ;.m ].m ) ^.* +.] ;./.(.' ! ` & >.& S _.V .                             ",
"  t :.<.[.U M }.N #.{.!.W 2 n j < o 5 p : p 6 5 c {.L c f e C b H -.|.1.{ ] -., 2...q %.> 1.` Q 7 3./.; R >.S T                         ",
"C W z V 4.J @.}.N X N #.$.$.u 3 1 }.5.).4 5 5 5 5 [ W $.t u D e i 3 6 2 o P > 6.P 7.* z ;.m /.1.%.8.> ; %.=.& T ].=                     ",
"g $.M a [.%.}.{.{.N #.#.X 9.5.!.c {.0.a.b.| n < 0 o o < W }.W u c e e } , >.m > > |./ ( p _ _ (.%.Q 4 G -./ %.m %.(.> =                 ",
"w ~.c.{.Z 2 $.$.{.{.}.{.N N $.d.e.f.@.f.g.M Z [ 0 5 o o o n s }.f D f d v 8.2.&.{ ! +.1.I n < &.! ` m { / x y , I , & I ^.=.            ",
"Z ~.~.9.h.X $.f.{.9.9.}.}.}.#.f.d.i.e.{.g n | 3 Y q : o o o : 8 s M s u D e Z ( { &.{ x ) /./ 3 ] |...: 3 w | | 2 O : k k ] '           ",
"b F ~.@.#.f.f.$.$.f.$.9.{.}.N }.{.!.j.k.!.M Z 3 w j 4 o o o o o : [ u X f d h r | l./.6.q O ( -.a v } } E E b } Z E j 2 O 4 : l.        ",
"g L M X m.m.@.!.9.{.c.$.9.{.{.N N }.}.N X $.d.M } 3 j | 4 q 5 5 o o 5 O ).m.D e r v p y { 8.8.] o b g b b } Z 1 1 E Z } Z E 1 v p       ",
"C W F m.m.F W L {.h.9.9.9.{.{.{.}.}.}.}.N N N h.d.m.w [ j | 4 q o o q 5 0 | c ).i v v j w g C g b b v b g r i g g g g C h ).@.M O       ",
"x D W L F F W L t L c.c.}.{.{.9.9.}.}.{.{.N #.#.N h.!.W E 3 E | Y q 5 q 0 q 4 9 u c C b g C v C b } } b b v e e d c F #.c.c.L 4 ,       ",
"..r c t ).).W t ).s u m.c.$.{.{.}.{.{.{.}.{.N N #.X {.h.k.F 1 j 1 } 8 4 q 0 0 q 8 | u d b b b } b g r e f ).~.N $.h.5.5.#.Z 3.y *.      ",
"-.} r d u s s s s u u c D @.$.N N N }.{.}.N }.}.#.N #.#.c.g.i.F } j b n 8 [ j 1 g d t W m.#.9.f.c.k.5.k.j.5.i.5.!.N c [ / |.^./.R       ",
"  _ 1 g r D c c u c c c f e f 9.c.#.}.#.}.#.#.}.N }.}.9.$.$.!.e.h.t } 2 | v u F N $.k.k.h.c.h.5.d.d.j.d.!.}.).g [ p 7 x +.' 2.^ Y l 6.  ",
"      0 b i e h f c f c f d e h F h.9.#.N }.N #.N {.}.$.f.$.f.$.$.X m.$.$.h.5.h.k.!.9.$.9.}.}.X m.u v E 3 < p _ ( l 3.-.+.{ 7 s E 8.6 H ",
"        k 1 C e h D d h f h h c D D @.!.}.@.N N }.{.9.c.k.f.{.9.N 8 z |.M k.f.@.D w n n 3 2 3 3 < 8 0 0 0 5 _ k ..Q ^ ~ +.: {.f.[ : G ] ",
"            E } g i e e e d e d h f D f }.h.}.N N 9.{.n.D t }.#.}.@.{.$.h.C 8 a k k l.: 0 8 Y q q 4 0 0 o _ l./ l Q ^ / 3 1 : _ o o l.  ",
"              q 1 g g i C r C C e e D h d u $.5.}.{.9.c.1.9 }.}.{.c.o.o.).6 8.k 8.8.a o 4 Y 0 0 o o o 5 p a 8...7 l / 6 8 < : ] ! ) {   ",
"                / O v g g i b v C r d d d h D W !.h.}.@.{.m.N {.}.k.a.p.C l._ _ a O Z g g v } Z Z Z Z b j n p l.p 8 n o ^ 6.+.|.' 2.m   ",
"                  l a Z v v 1 Z v g r r r d h d D ~.k.!.9.#.}.9.9.i.a.i.w _ p a Y 9.q.0.0.0.a.q.r.#.C O 0 [ < o 8.Q ^ ~ 6.+.|.) { 2.    ",
"                ! q 6 ..< E w E Z b g C i r e h h d d M h.9.{.9.$.r.q.c.[ a a 6 Z @.W ).d.k.f 2 Y 4 O < _ x ^ x 3.3.x ^ ` ) ) ' 2.m     ",
"                l.q 5 4 8 5 2 w E Z } v g C i i e h d e f @.h.$.h.p.s.}.8 p o 9 f X !.d.L 2 [ O p ( H H 3.^ ^ ^ ^ ^ -.-.) { { { { ^.    ",
"                3.q 5 5 s t.1 q | w Z b v v g g C i r e e e f $.u.v.r.N Z w | Y < i }.c.r l.x ^ 3.x x ^ -.~ ~ ~ ~ -.3.! { 2.2.(.(.      ",
"                / q 4 0 | b.w.f.0 n 1 } b b b v g g g g C e d M h.d.~.Z a / 7 ( 0 g X F 0 H 3.3.^ -.-.~ ~ ~ ~ ~ 6.~ -.) 2.%.2.&.^.      ",
"                l a 5 0 Y [ }.x.y.f q 2 E E } Z b v g v v C h X c.c.h q 7 H 7 G 8 h {.c a x x ^ -.! ! ~ ~ -.-.6.+.~ ~ |.' %.^.          ",
"                  |.a o 4 n 9 D z.A.g.w 0 E E 1 } v v v b v D N c.{.g p ..H / 6 n u $.C / 3.^ ^ x ^ ~ ! ~ -.~ ` 6.-.` %.,               ",
"                      _ o 4 8 n w {.y.A.9.8 n w 1 } v } } } c {.c.@.E l.7 ..k 5 9 ).N | Q -.~ 3.Q ~ ! ! -.3.~ 2.&.                      ",
"                        ^ q Y Y n E f r.A.0.c o 3 E } } 1 Z s 9.c.m.3 G 7 / G 5 | W ).0 -.^ ^ ^ ^ ~ -.-.` {                             ",
"                            4 Y n | w Z N a.A.s.| q j Z 1 1 m.f.{.D 0 ] l 7 _ 4 1 L i a ^ ^ x 3.3.! )                                   ",
"                              o O | j w 1 D e.B.y.}.q 8 w v @.$.X g : ..H l o O v ~.Z k x ^ { &.                                        ",
"                                  < j j E 1 v F o.A.t.v p | M {.L | a 7 x H 5 [ E w 5 ~                                                 ",
"                                    : 2 w 1 Z } r $.p.h b < [ C C < 7 x l                                                               ",
"                                        j w 1 1 } b Z Z } v v w 2 C 1 O l.                                                              ",
"                                          : 1 w 1 1 E j 1 1 E } e W w Y 8.                                                              ",
"                                              O 1 E 1 w 1 w | E g D 3 5 ]                                                               ",
"                                                k 9 Z } 1 w 2 j v b Y l                                                                 ",
"                                                    [ j Z } E w Z [ o ]                                                                 ",
"                                                        3 E Z 1 1 8 o                                                                   ",
"                                                            < } Z Y p                                                                   ",
"                                                              : q l._                                                                   "};
